<svg xmlns="http://www.w3.org/2000/svg" xmlns:xlink="http://www.w3.org/1999/xlink" version="1.1" x="0px" y="0px" viewBox="0 0 100 100" enable-background="new 0 0 100 100" xml:space="preserve"><g><path fill="#000000" d="M37.779,77.095"></path><path fill="#000000" d="M26.638,78.977"></path><path fill="#000000" d="M93.331,30.608c-1.228-2.254-6.827-5.832-16.627-5.832c-1.356,0-2.756,0.068-4.157,0.203   c-10.828,1.051-16.924,3.687-18.035,4.205l-1.087,0.51l0.321,1.157c0.032,0.118,0.09,0.388,0.125,0.729   c-0.482-0.063-1.135-0.141-1.808-0.197L51.9,31.369l-0.16,0.028c-14.772,2.273-29.03,10.729-29.629,11.088l-1.035,0.619   l0.443,1.118c0.067,0.172,0.224,0.705,0.225,1.253c-1.17-0.05-2.117-0.06-2.715-0.06c-0.531,0-0.827,0.008-0.827,0.008   l-0.206,0.004l-0.244,0.082c-2.646,0.974-8.882,6.113-11.365,12.467c-1.481,3.781-1.407,7.316,0.221,10.508   c2.28,4.471,7.147,6.738,14.466,6.738c5.496,0,10.784-1.308,12.802-1.87c2.781-0.78,27.707-7.938,46.129-18.993   c7.915-4.746,12.684-9.793,14.174-15.001C95.357,35.26,94.153,32.117,93.331,30.608z M23.311,45.232   c1.088-0.229,3.165-0.578,5.678-0.578c0.974,0,1.932,0.054,2.849,0.16c4.016,0.456,8.27,2.17,9.182,3.105   c0.562,0.578,1.194,1.229,1.15,3.105c-0.184-0.09-0.376-0.185-0.578-0.285c-3.078-1.525-8.217-4.07-18.349-4.469   C23.308,45.955,23.332,45.606,23.311,45.232z M79.197,53.011C60.902,63.986,36.207,71.064,33.451,71.835   c-1.956,0.545-7.079,1.813-12.376,1.813C14.396,73.648,10,71.67,8.01,67.77c-1.414-2.771-1.466-5.875-0.155-9.223   c2.275-5.812,8.057-10.66,10.419-11.549c0.08-0.002,0.342-0.008,0.755-0.008c1.224,0,2.503,0.04,3.8,0.117   c5.081,0.297,14.457,1.416,20.141,5.564l0.239,0.134l0.047-0.189c0.034-0.141,0.82-3.465-1.216-5.594   c-1.84-1.921-4.933-3.166-9.457-3.806c-0.94-0.133-2.024-0.201-3.222-0.201c-2.319,0-4.569,0.254-5.732,0.41   c3.081-1.742,15.684-8.526,28.317-10.472c0.013,0,1.293,0.095,3.202,0.409c4.687,0.764,13.156,2.821,17.231,8.019l0.087,0.11   l0.119-0.072c0.027-0.018,2.697-1.691,1.495-4.556c-0.505-1.2-1.507-2.419-2.819-3.431c-2.977-2.366-6.906-2.925-9.018-3.226   l-0.373-0.054c-0.654-0.096-1.441-0.145-2.339-0.145c-1.257,0-2.498,0.094-3.37,0.18c2.243-0.905,7.766-2.792,16.533-3.641   c1.339-0.13,2.688-0.197,4.009-0.197c9.362,0,14.39,3.442,15.246,5.013C93.677,34.536,95.893,42.994,79.197,53.011z M55.459,31.676   c1.244-0.196,2.514-0.296,3.774-0.296c6.292,0,11.12,2.403,12.942,4.636c1.016,1.243,1.027,2.38,0.033,3.666   c-1.961-2.08-4.51-3.493-6.271-4.381c-1.893-0.948-6.205-2.641-10.477-3.031C55.471,32.072,55.469,31.874,55.459,31.676z"></path></g><g display="none"><g display="inline"><path fill="#000000" d="M81.013,45.042l-0.052-0.062l0.049-0.066c0.625-0.851,0.913-1.766,0.854-2.718    c-0.055-0.725-0.303-1.409-0.758-2.094l-0.047-0.069l0.058-0.061c0.369-0.393,0.644-0.854,0.815-1.369    c0.434-1.354-0.041-2.709-0.517-3.605l-0.022-0.041l0.018-0.045c0.551-1.477,0.229-2.551-0.138-3.192    c-0.438-0.755-1.156-1.315-2.136-1.666l-0.073-0.026l0.005-0.078c0.03-0.539-0.041-1.065-0.211-1.564    c-0.358-1.039-1.081-1.748-1.624-2.16l-0.052-0.039l0.013-0.063c0.176-0.935,0.058-1.681-0.362-2.284c-0.43-0.636-1.15-1-1.979-1    H74.62l-0.02-0.079c-0.216-0.827-0.602-1.536-1.146-2.108c-0.834-0.86-1.999-1.32-3.369-1.33c-0.138,0-0.271,0.009-0.402,0.018    c-0.063,0.004-0.126,0.008-0.188,0.011l-0.073,0.003l-0.028-0.066c-0.106-0.247-0.258-0.482-0.451-0.702    c-0.44-0.491-1.07-0.777-1.773-0.804l-0.073-0.003l-0.022-0.07c-0.924-2.925-2.825-3.361-3.876-3.361    c-0.855,0-1.8,0.285-2.733,0.823l-0.075,0.044l-0.058-0.065c-0.814-0.945-1.939-1.019-2.265-1.019    c-0.114,0-0.237,0.009-0.352,0.018l-0.045,0.004l-0.033-0.029c-0.505-0.442-1.167-0.718-1.916-0.795l-0.032-0.003L55.664,13.3    c-1.146-0.956-2.278-1.157-3.025-1.157c-0.992,0-1.985,0.331-2.952,0.983l-0.039,0.025l-0.045-0.01    c-0.316-0.077-0.612-0.114-0.904-0.114c-0.389,0-0.802,0.063-1.195,0.185l-0.04,0.013l-0.038-0.02    c-0.668-0.334-1.368-0.503-2.08-0.503c-1.805,0-3.171,1.041-4,1.914l-0.031,0.033h-0.045c-0.038,0-0.074-0.002-0.11-0.004    c-0.031-0.002-0.062-0.005-0.097-0.005c-1.136,0-1.943,0.596-2.422,1.095l-0.029,0.032l-0.044,0.001    c-2.055,0.043-3.271,0.879-3.93,1.571c-0.474,0.507-0.83,1.093-1.059,1.739l-0.024,0.069l-0.074,0.001    c-1.064,0.003-3.673,0.397-4.905,3.978l-0.021,0.061l-0.064,0.009c-1.102,0.157-1.992,0.859-2.507,1.978l-0.023,0.053    l-0.058,0.008c-1.92,0.269-3.079,1.192-3.713,1.921c-1.22,1.429-1.497,3.223-1.516,4.478l-0.001,0.05l-0.04,0.031    c-0.927,0.727-1.275,1.579-1.404,2.167c-0.178,0.765-0.118,1.579,0.177,2.421l0.022,0.062l-0.047,0.047    c-0.187,0.187-0.336,0.373-0.473,0.587c-0.642,0.979-0.684,2.107-0.606,2.881l0.004,0.038l-0.021,0.031    c-0.8,1.177-0.839,2.262-0.731,2.965c0.128,0.844,0.535,1.647,1.209,2.389l0.048,0.052l-0.03,0.063    c-0.261,0.551-0.382,1.132-0.359,1.727c0.045,1.113,0.619,2.006,1.093,2.559l0.028,0.035l-0.004,0.044    c-0.025,0.258-0.011,0.53,0.044,0.81c0.199,0.954,0.874,1.665,1.405,2.092l0.036,0.027l0.003,0.047    c0.043,0.639,0.254,1.199,0.626,1.664c0.347,0.424,0.8,0.729,1.348,0.904l0.065,0.021l0.008,0.068    c0.056,0.578,0.224,1.123,0.5,1.617c0.612,1.074,1.682,1.727,3.01,1.832c0.032,0,0.076,0.002,0.119,0.004    c0.039,0.002,0.077,0.004,0.115,0.004c1.529,0,2.717-1.076,3.444-1.98l0.024-0.031l0.039-0.006    c0.398-0.068,0.778-0.223,1.129-0.455l0.08-0.053l0.212,0.264c0.084,0.104,0.167,0.209,0.25,0.314    c2.145,2.754,4.958,6.947,6.183,11.275c2.134,7.539,1.03,14.16,1.019,14.225l-0.123,0.715l0.492,0.535    c0.157,0.172,3.936,4.182,9.677,4.182c3.007,0,5.976-1.096,8.824-3.256l0.497-0.377l0.075-0.621    c0.412-3.418,1.74-12.932,2.911-15.859c0.606-1.516,2.203-4.41,4.616-8.367l0.062-0.102l0.092,0.072    c0.932,0.727,1.936,1.094,2.981,1.094c2.276,0,3.958-1.775,4.758-2.834l0.024-0.033l0.04-0.008    c2.425-0.455,3.476-3.014,3.814-4.094l0.016-0.049l0.05-0.018c2.6-0.936,4.087-2.311,4.422-4.086    C82.748,47.577,81.836,46.032,81.013,45.042z M65.197,58.336c-1.788,2.922-4.093,6.838-4.919,8.902    c-1.479,3.699-2.983,16.078-2.999,16.201l-0.005,0.045l-0.035,0.027c-2.605,1.975-5.297,2.977-7.998,2.977    c-5.159,0-8.638-3.703-8.672-3.74l-0.035-0.039l0.009-0.051c0.013-0.068,1.171-6.982-1.05-14.83    c-1.284-4.537-4.199-8.891-6.419-11.742c-0.2-0.258-0.395-0.502-0.583-0.736l-0.043-0.053l0.031-0.061    c0.271-0.52,0.409-1.086,0.398-1.639c-0.009-0.479-0.114-0.938-0.305-1.326l-0.065-0.133l0.147-0.018    c1.794-0.215,3.111-0.852,3.914-1.89l0.04-0.052l0.064,0.013c0.228,0.048,0.442,0.071,0.655,0.071h0.062l0.048,0.053    c0.742,1.327,1.927,2.057,3.335,2.057c0.222,0,0.474-0.025,0.748-0.07l0.189-0.041l0.04,0.055c0.259,0.357,0.545,0.67,0.85,0.93    l0.025,0.031c0.037,0.072,0.073,0.145,0.109,0.217c0.043,0.084,0.085,0.168,0.127,0.25c0.831,1.58,1.643,2.975,2.177,3.869    l0.015,0.023v0.029c0,0.014-0.016,1.23-0.243,2.418c0.243-0.375,0.566-0.922,0.694-1.371c0.472-1.547,0.799-3.236,0.973-5.021    l0.004-0.055l0.047-0.025c0.532-0.312,1.043-0.773,1.52-1.371c0.02-0.023,0.034-0.043,0.049-0.062l0.04-0.053    c0.008-0.01,0.017-0.02,0.022-0.029l0.041-0.062l0.073,0.018c0.403,0.104,0.871,0.117,1.429-0.041l0.104-0.029l0.095,0.387    c0.367,1.426,0.768,2.656,0.955,3.211c0.305-1.148,0.436-2.551,0.387-4.176l-0.004-0.127l0.127,0.021    c0.224,0.037,0.413,0.057,0.578,0.057c0.415,0,0.803-0.084,1.154-0.252l0.051-0.023l0.048,0.029    c0.671,0.402,1.374,0.605,2.092,0.605c0.375,0,0.765-0.07,1.228-0.225l0.163-0.053l-0.026,0.17    c-0.773,4.996,0.457,8.16,0.47,8.191c0.118,0.375,0.435,0.926,0.888,1.387c-0.135-0.445-0.355-1.242-0.521-2.139l-0.008-0.043    l0.024-0.035c1.09-1.58,3.176-4.73,4.911-8.078l0.092-0.177l0.094,0.176c0.33,0.62,0.961,1.458,2.096,1.924l0.064,0.027v0.07    c0,0.031-0.001,0.062-0.002,0.094c-0.002,0.055-0.005,0.109,0.001,0.164c0.009,0.262,0.063,0.652,0.277,1.074l0.024,0.047    l-0.024,0.049c-0.274,0.525-0.579,1.348-0.476,2.275c0.062,0.57,0.273,1.111,0.63,1.605l0.04,0.057L65.197,58.336z M44.609,54.102    l0.208,0.004c0.004-0.002,0.03-0.004,0.057-0.008l0.183-0.012l-0.016,0.125c-0.005,0.037-0.008,0.076-0.011,0.113    c-0.004,0.043-0.008,0.088-0.014,0.129l-0.041,0.318L44.609,54.102z M58.003,51.922l0.018-0.121l0.117,0.035    c0.456,0.141,0.912,0.211,1.354,0.211c0.172,0,0.365-0.014,0.572-0.041l0.21-0.027l-0.104,0.184    c-0.668,1.178-1.403,2.393-2.187,3.615l-0.178,0.277l-0.016-0.33C57.733,54.562,57.808,53.248,58.003,51.922z M80.858,49.023    c-0.254,1.348-1.682,2.411-4.244,3.159c-0.045,0.234-0.222,1.053-0.633,1.885c-0.642,1.293-1.549,1.979-2.623,1.979    c-0.039,0-0.076-0.004-0.115-0.006c-0.014,0-0.029-0.002-0.043-0.002c-0.245,0.408-1.785,2.812-3.899,2.812    c-0.921,0-1.813-0.461-2.655-1.369c-0.287-0.305-0.455-0.656-0.496-1.043c-0.118-1.023,0.675-1.979,0.961-2.285    c-0.48-0.281-0.733-0.623-0.754-1.016c-0.033-0.646,0.58-1.264,1.037-1.631c-0.287,0.045-0.56,0.066-0.825,0.066    c-2.314,0-2.779-1.867-2.864-2.383c-0.113,0.03-0.213,0.041-0.293,0.048c-0.026,0-0.044,0.002-0.06,0.004    c-0.022,0.003-0.044,0.005-0.064,0.005c-0.596,0-0.89-0.428-1.009-0.795c-0.75,1.33-1.688,2.004-2.787,2.004    c-1.2,0-2.195-0.801-2.464-1.039c-0.569,0.468-1.154,0.705-1.738,0.705c-1.15,0-1.996-0.888-2.346-1.33    c-0.097,0.793-0.584,0.97-0.999,0.97c-0.279,0-0.566-0.082-0.757-0.151c-0.284-0.101-0.527-0.227-0.655-0.297    c-0.342,0.6-0.721,0.975-1.155,1.144c-0.16,0.054-0.305,0.079-0.444,0.079c-0.582,0-1.045-0.414-1.242-0.624    c-0.284,0.513-0.574,0.95-0.885,1.333c-0.679,0.84-1.355,1.266-2.011,1.266c-1.336,0-2.166-1.728-2.362-2.187    c-0.417,0.207-0.814,0.345-1.182,0.409c-0.179,0.028-0.327,0.047-0.478,0.047c-1.773,0-2.279-1.917-2.408-2.663    c-0.333,0.45-0.737,0.554-1.036,0.554c-0.623,0-1.232-0.416-1.515-0.64c-0.175,1.67-1.813,2.587-4.644,2.587    c-0.41,0-0.778-0.022-1.06-0.046c0.3,0.196,0.476,0.435,0.527,0.712c0.08,0.436-0.171,0.846-0.338,1.064    c0.709,0.117,0.976,0.744,0.984,1.281c0.011,0.477-0.167,0.949-0.478,1.268c-0.349,0.359-0.85,0.484-1.346,0.363    c-0.228,0.367-1.321,2.02-2.646,2.02c-0.039,0-0.084,0-0.132-0.012c-0.776-0.055-1.38-0.412-1.729-1.027    c-0.423-0.748-0.38-1.734-0.115-2.414c-0.17,0.033-0.426,0.072-0.702,0.072c-0.562,0-0.994-0.166-1.251-0.482    c-0.278-0.342-0.354-0.854-0.229-1.523c-0.288-0.158-1.346-0.793-1.519-1.631c-0.069-0.334,0.01-0.658,0.234-0.965    c-0.312-0.239-1.316-1.096-1.364-2.226c-0.028-0.688,0.304-1.342,0.992-1.946c-0.412-0.26-1.673-1.156-1.872-2.453    c-0.119-0.783,0.173-1.564,0.87-2.323c-0.073-0.29-0.352-1.573,0.238-2.481c0.286-0.439,0.729-0.72,1.321-0.838    c-0.291-0.405-1.056-1.609-0.785-2.79c0.164-0.716,0.681-1.289,1.536-1.704c-0.057-0.459-0.26-2.759,1.091-4.332    c0.828-0.965,2.076-1.455,3.712-1.455h0.069c0.06-0.411,0.381-1.992,1.797-1.992c0.253,0,0.521,0.05,0.798,0.149    c0.011-0.073,0.028-0.175,0.052-0.298l0.016-0.072c0.018-0.086,0.04-0.181,0.065-0.283l0.04-0.158    c0.035-0.133,0.076-0.271,0.125-0.416c0.014-0.043,0.03-0.087,0.047-0.13l0.02-0.052c0.038-0.105,0.08-0.212,0.127-0.322    c0.029-0.068,0.058-0.136,0.091-0.205c0.081-0.175,0.164-0.332,0.252-0.48c0.017-0.026,0.034-0.052,0.051-0.078l0.033-0.049    c0.085-0.133,0.18-0.263,0.28-0.388l0.018-0.022c0.031-0.037,0.061-0.075,0.094-0.111c0.153-0.174,0.303-0.317,0.456-0.438    c0.009-0.007,0.021-0.015,0.033-0.023c0.173-0.129,0.353-0.236,0.549-0.33c0.03-0.02,0.046-0.029,0.062-0.037l0.149-0.069v0.017    c0.301-0.116,0.627-0.184,0.971-0.201l0.036,0.104l-0.005-0.105c0.019-0.001,0.036-0.003,0.055-0.006    c0.067-0.008,0.142-0.006,0.221,0.003c0.029,0.004,0.058,0.007,0.086,0.009c0.099,0.006,0.2,0.016,0.303,0.028    c0.096,0.011,0.191,0.023,0.291,0.042c0.162,0.031,0.337,0.074,0.535,0.133c0.001,0,0.002,0.001,0.003,0.001    c0.005-0.409,0.096-1.616,0.962-2.532c0.677-0.717,1.667-1.08,2.941-1.08c0.212,0,0.435,0.016,0.652,0.031    c0.142-0.251,0.717-1.15,1.674-1.15c0.271,0,0.551,0.074,0.832,0.221c0.281-0.41,1.59-2.159,3.451-2.159    c0.665,0,1.336,0.239,1.996,0.71c0.178-0.106,0.705-0.385,1.357-0.385c0.441,0,0.85,0.126,1.214,0.373    c0.271-0.271,1.352-1.257,2.727-1.257c0.863,0,1.672,0.394,2.404,1.169c0.047-0.003,0.122-0.006,0.22-0.006    c0.444,0,1.472,0.109,1.724,1.086c0.204-0.096,0.629-0.266,1.08-0.266c0.675,0,1.474,0.371,1.543,2.095    c0.522-0.498,2.103-1.878,3.588-1.878c1.453,0,2.362,1.297,2.706,3.854c0.238-0.149,0.732-0.42,1.198-0.42    c0.271,0,0.493,0.093,0.657,0.276c0.273,0.302,0.379,0.852,0.318,1.637c0.331-0.121,1.126-0.371,2.008-0.371    c0.938,0,1.684,0.281,2.219,0.837c0.655,0.68,0.974,1.763,0.947,3.222c0.32-0.18,1.039-0.542,1.604-0.542    c0.305,0,0.529,0.103,0.668,0.305c0.262,0.382,0.19,1.093-0.218,2.169c0.364,0.161,1.632,0.796,2.05,2.003    c0.251,0.724,0.146,1.515-0.311,2.354c0.556,0.027,2.242,0.199,2.853,1.258c0.376,0.65,0.269,1.508-0.318,2.548    c0.233,0.308,1.254,1.758,0.838,3.055c-0.235,0.734-0.89,1.276-1.944,1.613c0.491,0.327,1.711,1.263,1.801,2.565    c0.062,0.922-0.459,1.828-1.551,2.694C79.217,45.4,81.208,47.163,80.858,49.023z"></path><path fill="#000000" d="M47.888,23.862c0.066-0.443-0.179-0.93-0.533-1.273c-0.354-0.344-0.94-0.524-1.48-0.288    c-1.252,0.55-1.148,1.541-1.17,1.67c-0.234-0.141-0.5-0.258-0.801-0.286c-0.352-0.043-0.729,0.031-1.024,0.184    c-0.155,0.063-0.299,0.186-0.44,0.282c-0.113,0.104-0.158,0.143-0.308,0.293c-0.207,0.249-0.388,0.542-0.459,0.871    c-0.062,0.328-0.046,0.653,0.044,0.938c0.178,0.57,0.547,0.994,0.975,1.299c-0.295-0.456-0.374-0.901-0.365-1.327    c0.02-0.435,0.254-0.861,0.527-1.122c0.272-0.263,0.822-0.389,0.896-0.378c0.702-0.095,1.772,0.913,1.772,0.913    s-0.278-0.85,0.041-1.844c0.11-0.346,0.406-0.792,1.063-0.938c0.165-0.021,0.365,0.003,0.529,0.075    C47.499,23.063,47.785,23.431,47.888,23.862z"></path><path fill="#000000" d="M25.458,40.848c0.285-0.167,0.713-0.171,1.086-0.015c-0.291-0.28-0.781-0.366-1.229-0.303    c-0.446,0.064-0.901,0.374-1.023,0.873c-0.287,1.155,0.497,1.606,0.579,1.691c-0.232,0.086-0.463,0.209-0.649,0.4    c-0.226,0.222-0.378,0.521-0.429,0.807c-0.04,0.141-0.028,0.305-0.036,0.454c0.015,0.132,0.018,0.184,0.046,0.366    c0.069,0.275,0.185,0.555,0.387,0.777c0.206,0.217,0.453,0.377,0.711,0.464c0.515,0.177,1.029,0.147,1.489,0.012    c-0.498-0.037-0.867-0.218-1.176-0.447c-0.307-0.243-0.49-0.63-0.532-0.958c-0.042-0.327,0.168-0.773,0.216-0.819    c0.317-0.534,1.645-0.745,1.645-0.745s-0.776-0.254-1.329-1c-0.192-0.258-0.357-0.698-0.102-1.229    C25.187,41.051,25.313,40.924,25.458,40.848z"></path><path fill="#000000" d="M73.024,31.051c-0.037-0.067-0.044-0.112-0.107-0.198l-0.104-0.147c-0.128-0.191-0.364-0.452-0.564-0.61    c-0.22-0.167-0.464-0.297-0.709-0.39c-0.501-0.169-1.01-0.155-1.397-0.021c-0.392,0.134-0.653,0.386-0.765,0.587    c-0.114,0.206-0.093,0.342-0.104,0.336c0.007,0.006,0.064-0.114,0.229-0.227c0.162-0.115,0.421-0.212,0.736-0.224    c0.316-0.007,0.678,0.066,1.008,0.242c0.165,0.089,0.323,0.198,0.463,0.338c0.156,0.148,0.249,0.242,0.385,0.45l0.097,0.152    c0.009,0.009,0.042,0.08,0.063,0.116c0.044,0.09,0.104,0.175,0.129,0.269c0.068,0.182,0.123,0.363,0.145,0.545    c0.028,0.182,0.014,0.363-0.002,0.539c-0.021,0.177-0.069,0.343-0.111,0.504c-0.218,0.629-0.513,1.052-0.513,1.052    s0.12-0.044,0.306-0.165c0.184-0.121,0.439-0.321,0.67-0.644c0.23-0.317,0.436-0.782,0.438-1.319    c0.014-0.266-0.037-0.545-0.13-0.805C73.149,31.294,73.081,31.177,73.024,31.051z"></path><path fill="#000000" d="M59.278,39.736c-0.315-0.535-0.891-0.954-1.541-1.118c-0.719-0.183-1.44-0.04-1.98,0.391l-0.059,0.046    l-0.015-0.073c-0.271-1.333-0.971-2.208-1.968-2.462c-0.35-0.088-0.738-0.102-1.153-0.042c-1.36,0.202-2.286,1.38-2.198,2.802    l0.005,0.079l-0.07-0.037c-0.205-0.106-0.421-0.188-0.642-0.245c-0.891-0.225-1.733,0.006-2.251,0.62    c-0.386,0.456-0.511,1.138-0.319,1.735c0.159,0.491,0.508,0.851,0.957,0.98l0.244,0.071L48.112,42.3    c-0.43-0.445-0.525-0.994-0.285-1.631c0.379-1.006,1.336-0.928,1.874-0.791c0.082,0.021,0.162,0.044,0.238,0.07    c0.388,0.133,0.708,0.315,0.979,0.556l0.166,0.147l-0.055-0.215c-0.299-1.158,0.12-2.192,1.12-2.764    c0.511-0.291,0.995-0.383,1.44-0.269c0.631,0.159,0.968,0.669,1.028,0.77c0.356,0.59,0.494,1.232,0.458,2.146l-0.007,0.168    l0.122-0.117c0.505-0.492,1.606-1.135,2.57-0.891c0.315,0.08,0.595,0.248,0.835,0.498c0.706,0.74,0.396,1.719,0.011,2.409    l-0.21,0.374l0.314-0.292c0.33-0.307,0.572-0.656,0.727-1.044l0.005,0.004l0.02-0.057l0.031,0.004l0.03-0.131l-0.023-0.008    C59.625,40.71,59.547,40.193,59.278,39.736z"></path></g></g></svg>