<svg xmlns="http://www.w3.org/2000/svg" xmlns:xlink="http://www.w3.org/1999/xlink" version="1.1" x="0px" y="0px" viewBox="0 0 100 100" enable-background="new 0 0 100 100" xml:space="preserve"><g display="none"><path display="inline" fill="#000000" d="M37.779,77.095"></path><path display="inline" fill="#000000" d="M26.638,78.977"></path><path display="inline" fill="#000000" d="M93.331,30.608c-1.228-2.254-6.827-5.832-16.627-5.832c-1.356,0-2.756,0.068-4.157,0.203   c-10.828,1.051-16.924,3.687-18.035,4.205l-1.087,0.51l0.321,1.157c0.032,0.118,0.09,0.388,0.125,0.729   c-0.482-0.063-1.135-0.141-1.808-0.197L51.9,31.369l-0.16,0.028c-14.772,2.273-29.03,10.729-29.629,11.088l-1.035,0.619   l0.443,1.118c0.067,0.172,0.224,0.705,0.225,1.253c-1.17-0.05-2.117-0.06-2.715-0.06c-0.531,0-0.827,0.008-0.827,0.008   l-0.206,0.004l-0.244,0.082c-2.646,0.974-8.882,6.113-11.365,12.467c-1.481,3.781-1.407,7.316,0.221,10.508   c2.28,4.471,7.147,6.738,14.466,6.738c5.496,0,10.784-1.308,12.802-1.87c2.781-0.78,27.707-7.938,46.129-18.993   c7.915-4.746,12.684-9.793,14.174-15.001C95.357,35.26,94.153,32.117,93.331,30.608z M23.311,45.232   c1.088-0.229,3.165-0.578,5.678-0.578c0.974,0,1.932,0.054,2.849,0.16c4.016,0.456,8.27,2.17,9.182,3.105   c0.562,0.578,1.194,1.229,1.15,3.105c-0.184-0.09-0.376-0.185-0.578-0.285c-3.078-1.525-8.217-4.07-18.349-4.469   C23.308,45.955,23.332,45.606,23.311,45.232z M79.197,53.011C60.902,63.986,36.207,71.064,33.451,71.835   c-1.956,0.545-7.079,1.813-12.376,1.813C14.396,73.648,10,71.67,8.01,67.77c-1.414-2.771-1.466-5.875-0.155-9.223   c2.275-5.812,8.057-10.66,10.419-11.549c0.08-0.002,0.342-0.008,0.755-0.008c1.224,0,2.503,0.04,3.8,0.117   c5.081,0.297,14.457,1.416,20.141,5.564l0.239,0.134l0.047-0.189c0.034-0.141,0.82-3.465-1.216-5.594   c-1.84-1.921-4.933-3.166-9.457-3.806c-0.94-0.133-2.024-0.201-3.222-0.201c-2.319,0-4.569,0.254-5.732,0.41   c3.081-1.742,15.684-8.526,28.317-10.472c0.013,0,1.293,0.095,3.202,0.409c4.687,0.764,13.156,2.821,17.231,8.019l0.087,0.11   l0.119-0.072c0.027-0.018,2.697-1.691,1.495-4.556c-0.505-1.2-1.507-2.419-2.819-3.431c-2.977-2.366-6.906-2.925-9.018-3.226   l-0.373-0.054c-0.654-0.096-1.441-0.145-2.339-0.145c-1.257,0-2.498,0.094-3.37,0.18c2.243-0.905,7.766-2.792,16.533-3.641   c1.339-0.13,2.688-0.197,4.009-0.197c9.362,0,14.39,3.442,15.246,5.013C93.677,34.536,95.893,42.994,79.197,53.011z M55.459,31.676   c1.244-0.196,2.514-0.296,3.774-0.296c6.292,0,11.12,2.403,12.942,4.636c1.016,1.243,1.027,2.38,0.033,3.666   c-1.961-2.08-4.51-3.493-6.271-4.381c-1.893-0.948-6.205-2.641-10.477-3.031C55.471,32.072,55.469,31.874,55.459,31.676z"></path></g><g display="none"><g display="inline"><path fill="#000000" d="M81.013,45.042l-0.052-0.062l0.049-0.066c0.625-0.851,0.913-1.766,0.854-2.718    c-0.055-0.725-0.303-1.409-0.758-2.094l-0.047-0.069l0.058-0.061c0.369-0.393,0.644-0.854,0.815-1.369    c0.434-1.354-0.041-2.709-0.517-3.605l-0.022-0.041l0.018-0.045c0.551-1.477,0.229-2.551-0.138-3.192    c-0.438-0.755-1.156-1.315-2.136-1.666l-0.073-0.026l0.005-0.078c0.03-0.539-0.041-1.065-0.211-1.564    c-0.358-1.039-1.081-1.748-1.624-2.16l-0.052-0.039l0.013-0.063c0.176-0.935,0.058-1.681-0.362-2.284c-0.43-0.636-1.15-1-1.979-1    H74.62l-0.02-0.079c-0.216-0.827-0.602-1.536-1.146-2.108c-0.834-0.86-1.999-1.32-3.369-1.33c-0.138,0-0.271,0.009-0.402,0.018    c-0.063,0.004-0.126,0.008-0.188,0.011l-0.073,0.003l-0.028-0.066c-0.106-0.247-0.258-0.482-0.451-0.702    c-0.44-0.491-1.07-0.777-1.773-0.804l-0.073-0.003l-0.022-0.07c-0.924-2.925-2.825-3.361-3.876-3.361    c-0.855,0-1.8,0.285-2.733,0.823l-0.075,0.044l-0.058-0.065c-0.814-0.945-1.939-1.019-2.265-1.019    c-0.114,0-0.237,0.009-0.352,0.018l-0.045,0.004l-0.033-0.029c-0.505-0.442-1.167-0.718-1.916-0.795l-0.032-0.003L55.664,13.3    c-1.146-0.956-2.278-1.157-3.025-1.157c-0.992,0-1.985,0.331-2.952,0.983l-0.039,0.025l-0.045-0.01    c-0.316-0.077-0.612-0.114-0.904-0.114c-0.389,0-0.802,0.063-1.195,0.185l-0.04,0.013l-0.038-0.02    c-0.668-0.334-1.368-0.503-2.08-0.503c-1.805,0-3.171,1.041-4,1.914l-0.031,0.033h-0.045c-0.038,0-0.074-0.002-0.11-0.004    c-0.031-0.002-0.062-0.005-0.097-0.005c-1.136,0-1.943,0.596-2.422,1.095l-0.029,0.032l-0.044,0.001    c-2.055,0.043-3.271,0.879-3.93,1.571c-0.474,0.507-0.83,1.093-1.059,1.739l-0.024,0.069l-0.074,0.001    c-1.064,0.003-3.673,0.397-4.905,3.978l-0.021,0.061l-0.064,0.009c-1.102,0.157-1.992,0.859-2.507,1.978l-0.023,0.053    l-0.058,0.008c-1.92,0.269-3.079,1.192-3.713,1.921c-1.22,1.429-1.497,3.223-1.516,4.478l-0.001,0.05l-0.04,0.031    c-0.927,0.727-1.275,1.579-1.404,2.167c-0.178,0.765-0.118,1.579,0.177,2.421l0.022,0.062l-0.047,0.047    c-0.187,0.187-0.336,0.373-0.473,0.587c-0.642,0.979-0.684,2.107-0.606,2.881l0.004,0.038l-0.021,0.031    c-0.8,1.177-0.839,2.262-0.731,2.965c0.128,0.844,0.535,1.647,1.209,2.389l0.048,0.052l-0.03,0.063    c-0.261,0.551-0.382,1.132-0.359,1.727c0.045,1.113,0.619,2.006,1.093,2.559l0.028,0.035l-0.004,0.044    c-0.025,0.258-0.011,0.53,0.044,0.81c0.199,0.954,0.874,1.665,1.405,2.092l0.036,0.027l0.003,0.047    c0.043,0.639,0.254,1.199,0.626,1.664c0.347,0.424,0.8,0.729,1.348,0.904l0.065,0.021l0.008,0.068    c0.056,0.578,0.224,1.123,0.5,1.617c0.612,1.074,1.682,1.727,3.01,1.832c0.032,0,0.076,0.002,0.119,0.004    c0.039,0.002,0.077,0.004,0.115,0.004c1.529,0,2.717-1.076,3.444-1.98l0.024-0.031l0.039-0.006    c0.398-0.068,0.778-0.223,1.129-0.455l0.08-0.053l0.212,0.264c0.084,0.104,0.167,0.209,0.25,0.314    c2.145,2.754,4.958,6.947,6.183,11.275c2.134,7.539,1.03,14.16,1.019,14.225l-0.123,0.715l0.492,0.535    c0.157,0.172,3.936,4.182,9.677,4.182c3.007,0,5.976-1.096,8.824-3.256l0.497-0.377l0.075-0.621    c0.412-3.418,1.74-12.932,2.911-15.859c0.606-1.516,2.203-4.41,4.616-8.367l0.062-0.102l0.092,0.072    c0.932,0.727,1.936,1.094,2.981,1.094c2.276,0,3.958-1.775,4.758-2.834l0.024-0.033l0.04-0.008    c2.425-0.455,3.476-3.014,3.814-4.094l0.016-0.049l0.05-0.018c2.6-0.936,4.087-2.311,4.422-4.086    C82.748,47.577,81.836,46.032,81.013,45.042z M65.197,58.336c-1.788,2.922-4.093,6.838-4.919,8.902    c-1.479,3.699-2.983,16.078-2.999,16.201l-0.005,0.045l-0.035,0.027c-2.605,1.975-5.297,2.977-7.998,2.977    c-5.159,0-8.638-3.703-8.672-3.74l-0.035-0.039l0.009-0.051c0.013-0.068,1.171-6.982-1.05-14.83    c-1.284-4.537-4.199-8.891-6.419-11.742c-0.2-0.258-0.395-0.502-0.583-0.736l-0.043-0.053l0.031-0.061    c0.271-0.52,0.409-1.086,0.398-1.639c-0.009-0.479-0.114-0.938-0.305-1.326l-0.065-0.133l0.147-0.018    c1.794-0.215,3.111-0.852,3.914-1.89l0.04-0.052l0.064,0.013c0.228,0.048,0.442,0.071,0.655,0.071h0.062l0.048,0.053    c0.742,1.327,1.927,2.057,3.335,2.057c0.222,0,0.474-0.025,0.748-0.07l0.189-0.041l0.04,0.055c0.259,0.357,0.545,0.67,0.85,0.93    l0.025,0.031c0.037,0.072,0.073,0.145,0.109,0.217c0.043,0.084,0.085,0.168,0.127,0.25c0.831,1.58,1.643,2.975,2.177,3.869    l0.015,0.023v0.029c0,0.014-0.016,1.23-0.243,2.418c0.243-0.375,0.566-0.922,0.694-1.371c0.472-1.547,0.799-3.236,0.973-5.021    l0.004-0.055l0.047-0.025c0.532-0.312,1.043-0.773,1.52-1.371c0.02-0.023,0.034-0.043,0.049-0.062l0.04-0.053    c0.008-0.01,0.017-0.02,0.022-0.029l0.041-0.062l0.073,0.018c0.403,0.104,0.871,0.117,1.429-0.041l0.104-0.029l0.095,0.387    c0.367,1.426,0.768,2.656,0.955,3.211c0.305-1.148,0.436-2.551,0.387-4.176l-0.004-0.127l0.127,0.021    c0.224,0.037,0.413,0.057,0.578,0.057c0.415,0,0.803-0.084,1.154-0.252l0.051-0.023l0.048,0.029    c0.671,0.402,1.374,0.605,2.092,0.605c0.375,0,0.765-0.07,1.228-0.225l0.163-0.053l-0.026,0.17    c-0.773,4.996,0.457,8.16,0.47,8.191c0.118,0.375,0.435,0.926,0.888,1.387c-0.135-0.445-0.355-1.242-0.521-2.139l-0.008-0.043    l0.024-0.035c1.09-1.58,3.176-4.73,4.911-8.078l0.092-0.177l0.094,0.176c0.33,0.62,0.961,1.458,2.096,1.924l0.064,0.027v0.07    c0,0.031-0.001,0.062-0.002,0.094c-0.002,0.055-0.005,0.109,0.001,0.164c0.009,0.262,0.063,0.652,0.277,1.074l0.024,0.047    l-0.024,0.049c-0.274,0.525-0.579,1.348-0.476,2.275c0.062,0.57,0.273,1.111,0.63,1.605l0.04,0.057L65.197,58.336z M44.609,54.102    l0.208,0.004c0.004-0.002,0.03-0.004,0.057-0.008l0.183-0.012l-0.016,0.125c-0.005,0.037-0.008,0.076-0.011,0.113    c-0.004,0.043-0.008,0.088-0.014,0.129l-0.041,0.318L44.609,54.102z M58.003,51.922l0.018-0.121l0.117,0.035    c0.456,0.141,0.912,0.211,1.354,0.211c0.172,0,0.365-0.014,0.572-0.041l0.21-0.027l-0.104,0.184    c-0.668,1.178-1.403,2.393-2.187,3.615l-0.178,0.277l-0.016-0.33C57.733,54.562,57.808,53.248,58.003,51.922z M80.858,49.023    c-0.254,1.348-1.682,2.411-4.244,3.159c-0.045,0.234-0.222,1.053-0.633,1.885c-0.642,1.293-1.549,1.979-2.623,1.979    c-0.039,0-0.076-0.004-0.115-0.006c-0.014,0-0.029-0.002-0.043-0.002c-0.245,0.408-1.785,2.812-3.899,2.812    c-0.921,0-1.813-0.461-2.655-1.369c-0.287-0.305-0.455-0.656-0.496-1.043c-0.118-1.023,0.675-1.979,0.961-2.285    c-0.48-0.281-0.733-0.623-0.754-1.016c-0.033-0.646,0.58-1.264,1.037-1.631c-0.287,0.045-0.56,0.066-0.825,0.066    c-2.314,0-2.779-1.867-2.864-2.383c-0.113,0.03-0.213,0.041-0.293,0.048c-0.026,0-0.044,0.002-0.06,0.004    c-0.022,0.003-0.044,0.005-0.064,0.005c-0.596,0-0.89-0.428-1.009-0.795c-0.75,1.33-1.688,2.004-2.787,2.004    c-1.2,0-2.195-0.801-2.464-1.039c-0.569,0.468-1.154,0.705-1.738,0.705c-1.15,0-1.996-0.888-2.346-1.33    c-0.097,0.793-0.584,0.97-0.999,0.97c-0.279,0-0.566-0.082-0.757-0.151c-0.284-0.101-0.527-0.227-0.655-0.297    c-0.342,0.6-0.721,0.975-1.155,1.144c-0.16,0.054-0.305,0.079-0.444,0.079c-0.582,0-1.045-0.414-1.242-0.624    c-0.284,0.513-0.574,0.95-0.885,1.333c-0.679,0.84-1.355,1.266-2.011,1.266c-1.336,0-2.166-1.728-2.362-2.187    c-0.417,0.207-0.814,0.345-1.182,0.409c-0.179,0.028-0.327,0.047-0.478,0.047c-1.773,0-2.279-1.917-2.408-2.663    c-0.333,0.45-0.737,0.554-1.036,0.554c-0.623,0-1.232-0.416-1.515-0.64c-0.175,1.67-1.813,2.587-4.644,2.587    c-0.41,0-0.778-0.022-1.06-0.046c0.3,0.196,0.476,0.435,0.527,0.712c0.08,0.436-0.171,0.846-0.338,1.064    c0.709,0.117,0.976,0.744,0.984,1.281c0.011,0.477-0.167,0.949-0.478,1.268c-0.349,0.359-0.85,0.484-1.346,0.363    c-0.228,0.367-1.321,2.02-2.646,2.02c-0.039,0-0.084,0-0.132-0.012c-0.776-0.055-1.38-0.412-1.729-1.027    c-0.423-0.748-0.38-1.734-0.115-2.414c-0.17,0.033-0.426,0.072-0.702,0.072c-0.562,0-0.994-0.166-1.251-0.482    c-0.278-0.342-0.354-0.854-0.229-1.523c-0.288-0.158-1.346-0.793-1.519-1.631c-0.069-0.334,0.01-0.658,0.234-0.965    c-0.312-0.239-1.316-1.096-1.364-2.226c-0.028-0.688,0.304-1.342,0.992-1.946c-0.412-0.26-1.673-1.156-1.872-2.453    c-0.119-0.783,0.173-1.564,0.87-2.323c-0.073-0.29-0.352-1.573,0.238-2.481c0.286-0.439,0.729-0.72,1.321-0.838    c-0.291-0.405-1.056-1.609-0.785-2.79c0.164-0.716,0.681-1.289,1.536-1.704c-0.057-0.459-0.26-2.759,1.091-4.332    c0.828-0.965,2.076-1.455,3.712-1.455h0.069c0.06-0.411,0.381-1.992,1.797-1.992c0.253,0,0.521,0.05,0.798,0.149    c0.011-0.073,0.028-0.175,0.052-0.298l0.016-0.072c0.018-0.086,0.04-0.181,0.065-0.283l0.04-0.158    c0.035-0.133,0.076-0.271,0.125-0.416c0.014-0.043,0.03-0.087,0.047-0.13l0.02-0.052c0.038-0.105,0.08-0.212,0.127-0.322    c0.029-0.068,0.058-0.136,0.091-0.205c0.081-0.175,0.164-0.332,0.252-0.48c0.017-0.026,0.034-0.052,0.051-0.078l0.033-0.049    c0.085-0.133,0.18-0.263,0.28-0.388l0.018-0.022c0.031-0.037,0.061-0.075,0.094-0.111c0.153-0.174,0.303-0.317,0.456-0.438    c0.009-0.007,0.021-0.015,0.033-0.023c0.173-0.129,0.353-0.236,0.549-0.33c0.03-0.02,0.046-0.029,0.062-0.037l0.149-0.069v0.017    c0.301-0.116,0.627-0.184,0.971-0.201l0.036,0.104l-0.005-0.105c0.019-0.001,0.036-0.003,0.055-0.006    c0.067-0.008,0.142-0.006,0.221,0.003c0.029,0.004,0.058,0.007,0.086,0.009c0.099,0.006,0.2,0.016,0.303,0.028    c0.096,0.011,0.191,0.023,0.291,0.042c0.162,0.031,0.337,0.074,0.535,0.133c0.001,0,0.002,0.001,0.003,0.001    c0.005-0.409,0.096-1.616,0.962-2.532c0.677-0.717,1.667-1.08,2.941-1.08c0.212,0,0.435,0.016,0.652,0.031    c0.142-0.251,0.717-1.15,1.674-1.15c0.271,0,0.551,0.074,0.832,0.221c0.281-0.41,1.59-2.159,3.451-2.159    c0.665,0,1.336,0.239,1.996,0.71c0.178-0.106,0.705-0.385,1.357-0.385c0.441,0,0.85,0.126,1.214,0.373    c0.271-0.271,1.352-1.257,2.727-1.257c0.863,0,1.672,0.394,2.404,1.169c0.047-0.003,0.122-0.006,0.22-0.006    c0.444,0,1.472,0.109,1.724,1.086c0.204-0.096,0.629-0.266,1.08-0.266c0.675,0,1.474,0.371,1.543,2.095    c0.522-0.498,2.103-1.878,3.588-1.878c1.453,0,2.362,1.297,2.706,3.854c0.238-0.149,0.732-0.42,1.198-0.42    c0.271,0,0.493,0.093,0.657,0.276c0.273,0.302,0.379,0.852,0.318,1.637c0.331-0.121,1.126-0.371,2.008-0.371    c0.938,0,1.684,0.281,2.219,0.837c0.655,0.68,0.974,1.763,0.947,3.222c0.32-0.18,1.039-0.542,1.604-0.542    c0.305,0,0.529,0.103,0.668,0.305c0.262,0.382,0.19,1.093-0.218,2.169c0.364,0.161,1.632,0.796,2.05,2.003    c0.251,0.724,0.146,1.515-0.311,2.354c0.556,0.027,2.242,0.199,2.853,1.258c0.376,0.65,0.269,1.508-0.318,2.548    c0.233,0.308,1.254,1.758,0.838,3.055c-0.235,0.734-0.89,1.276-1.944,1.613c0.491,0.327,1.711,1.263,1.801,2.565    c0.062,0.922-0.459,1.828-1.551,2.694C79.217,45.4,81.208,47.163,80.858,49.023z"></path><path fill="#000000" d="M47.888,23.862c0.066-0.443-0.179-0.93-0.533-1.273c-0.354-0.344-0.94-0.524-1.48-0.288    c-1.252,0.55-1.148,1.541-1.17,1.67c-0.234-0.141-0.5-0.258-0.801-0.286c-0.352-0.043-0.729,0.031-1.024,0.184    c-0.155,0.063-0.299,0.186-0.44,0.282c-0.113,0.104-0.158,0.143-0.308,0.293c-0.207,0.249-0.388,0.542-0.459,0.871    c-0.062,0.328-0.046,0.653,0.044,0.938c0.178,0.57,0.547,0.994,0.975,1.299c-0.295-0.456-0.374-0.901-0.365-1.327    c0.02-0.435,0.254-0.861,0.527-1.122c0.272-0.263,0.822-0.389,0.896-0.378c0.702-0.095,1.772,0.913,1.772,0.913    s-0.278-0.85,0.041-1.844c0.11-0.346,0.406-0.792,1.063-0.938c0.165-0.021,0.365,0.003,0.529,0.075    C47.499,23.063,47.785,23.431,47.888,23.862z"></path><path fill="#000000" d="M25.458,40.848c0.285-0.167,0.713-0.171,1.086-0.015c-0.291-0.28-0.781-0.366-1.229-0.303    c-0.446,0.064-0.901,0.374-1.023,0.873c-0.287,1.155,0.497,1.606,0.579,1.691c-0.232,0.086-0.463,0.209-0.649,0.4    c-0.226,0.222-0.378,0.521-0.429,0.807c-0.04,0.141-0.028,0.305-0.036,0.454c0.015,0.132,0.018,0.184,0.046,0.366    c0.069,0.275,0.185,0.555,0.387,0.777c0.206,0.217,0.453,0.377,0.711,0.464c0.515,0.177,1.029,0.147,1.489,0.012    c-0.498-0.037-0.867-0.218-1.176-0.447c-0.307-0.243-0.49-0.63-0.532-0.958c-0.042-0.327,0.168-0.773,0.216-0.819    c0.317-0.534,1.645-0.745,1.645-0.745s-0.776-0.254-1.329-1c-0.192-0.258-0.357-0.698-0.102-1.229    C25.187,41.051,25.313,40.924,25.458,40.848z"></path><path fill="#000000" d="M73.024,31.051c-0.037-0.067-0.044-0.112-0.107-0.198l-0.104-0.147c-0.128-0.191-0.364-0.452-0.564-0.61    c-0.22-0.167-0.464-0.297-0.709-0.39c-0.501-0.169-1.01-0.155-1.397-0.021c-0.392,0.134-0.653,0.386-0.765,0.587    c-0.114,0.206-0.093,0.342-0.104,0.336c0.007,0.006,0.064-0.114,0.229-0.227c0.162-0.115,0.421-0.212,0.736-0.224    c0.316-0.007,0.678,0.066,1.008,0.242c0.165,0.089,0.323,0.198,0.463,0.338c0.156,0.148,0.249,0.242,0.385,0.45l0.097,0.152    c0.009,0.009,0.042,0.08,0.063,0.116c0.044,0.09,0.104,0.175,0.129,0.269c0.068,0.182,0.123,0.363,0.145,0.545    c0.028,0.182,0.014,0.363-0.002,0.539c-0.021,0.177-0.069,0.343-0.111,0.504c-0.218,0.629-0.513,1.052-0.513,1.052    s0.12-0.044,0.306-0.165c0.184-0.121,0.439-0.321,0.67-0.644c0.23-0.317,0.436-0.782,0.438-1.319    c0.014-0.266-0.037-0.545-0.13-0.805C73.149,31.294,73.081,31.177,73.024,31.051z"></path><path fill="#000000" d="M59.278,39.736c-0.315-0.535-0.891-0.954-1.541-1.118c-0.719-0.183-1.44-0.04-1.98,0.391l-0.059,0.046    l-0.015-0.073c-0.271-1.333-0.971-2.208-1.968-2.462c-0.35-0.088-0.738-0.102-1.153-0.042c-1.36,0.202-2.286,1.38-2.198,2.802    l0.005,0.079l-0.07-0.037c-0.205-0.106-0.421-0.188-0.642-0.245c-0.891-0.225-1.733,0.006-2.251,0.62    c-0.386,0.456-0.511,1.138-0.319,1.735c0.159,0.491,0.508,0.851,0.957,0.98l0.244,0.071L48.112,42.3    c-0.43-0.445-0.525-0.994-0.285-1.631c0.379-1.006,1.336-0.928,1.874-0.791c0.082,0.021,0.162,0.044,0.238,0.07    c0.388,0.133,0.708,0.315,0.979,0.556l0.166,0.147l-0.055-0.215c-0.299-1.158,0.12-2.192,1.12-2.764    c0.511-0.291,0.995-0.383,1.44-0.269c0.631,0.159,0.968,0.669,1.028,0.77c0.356,0.59,0.494,1.232,0.458,2.146l-0.007,0.168    l0.122-0.117c0.505-0.492,1.606-1.135,2.57-0.891c0.315,0.08,0.595,0.248,0.835,0.498c0.706,0.74,0.396,1.719,0.011,2.409    l-0.21,0.374l0.314-0.292c0.33-0.307,0.572-0.656,0.727-1.044l0.005,0.004l0.02-0.057l0.031,0.004l0.03-0.131l-0.023-0.008    C59.625,40.71,59.547,40.193,59.278,39.736z"></path></g></g><g display="none"><g display="inline"><path fill="#000000" d="M78.706,51.348c-1.919,0-3.48,2.185-3.48,4.868c0,2.685,1.562,4.869,3.48,4.869s3.479-2.185,3.479-4.869    C82.186,53.532,80.625,51.348,78.706,51.348z M80.446,56.2c-0.111,1.1-0.555,3.658-2.241,3.658c-0.199,0-0.413-0.036-0.636-0.109    c-0.896-0.659-1.473-2.043-1.473-3.533c0-2.169,1.17-3.934,2.609-3.934c0.194,0,0.395,0.037,0.597,0.109    C79.925,53.218,80.616,54.54,80.446,56.2z"></path><path fill="#000000" d="M59.205,45.973c-2.919,0-5.292,2.481-5.292,5.531c0,3.049,2.373,5.53,5.292,5.53    c2.917,0,5.292-2.481,5.292-5.53C64.497,48.454,62.122,45.973,59.205,45.973z M61.177,52.135    c-0.856,1.842-2.031,2.737-3.592,2.737c-0.494,0-1.029-0.088-1.637-0.27c-0.752-0.853-1.166-1.951-1.166-3.099    c0-2.534,1.984-4.597,4.423-4.597c0.278,0,0.56,0.028,0.836,0.084C61.161,48.066,62.253,49.823,61.177,52.135z"></path><path fill="#000000" d="M73.269,42.701c-1.239,0-2.247,1.677-2.247,3.739c0,2.062,1.008,3.739,2.247,3.739    c1.24,0,2.248-1.678,2.248-3.739C75.517,44.378,74.509,42.701,73.269,42.701z M73.263,49.245    c-0.719-0.008-1.371-1.342-1.371-2.805c0-1.469,0.656-2.805,1.377-2.805c0.078,0,0.156,0.018,0.239,0.053    c0.454,1.013,0.703,1.877,0.703,2.44C74.211,47.063,73.962,48.431,73.263,49.245z"></path><path fill="#000000" d="M45.141,62.399c-2.198,0-3.987,1.139-3.987,2.537s1.789,2.536,3.987,2.536s3.987-1.138,3.987-2.536    S47.339,62.399,45.141,62.399z M46.792,66.273c-0.505,0.176-1.061,0.265-1.651,0.265c-1.932,0-3.117-0.933-3.117-1.602    s1.186-1.602,3.117-1.602c0.255,0,0.507,0.018,0.769,0.055c1.051,0.277,1.303,0.909,1.441,1.68    C47.413,65.423,47.063,65.987,46.792,66.273z"></path><path fill="#000000" d="M89.681,30.63c-1.324-5.553-5.146-9.523-11.357-11.803c-4.797-1.762-9.801-2.024-12.356-2.024    c-0.959,0-1.536,0.037-1.56,0.04l-0.289,0.019l-0.26,0.137L11.227,44.729l-0.952,0.502l0.156,1.127l1.595,11.528l0.204,1.469    l1.374-0.147c0.001,0,0.082-0.007,0.205-0.008c0.3,0.049,1.267,0.296,1.233,1.448c-0.031,1.083-0.577,1.538-1.007,1.689    c-0.019,0.003-0.037,0.007-0.056,0.009l-1.436,0.221l0.206,1.543l2.345,17.604l0.197,1.482l1.387-0.153l11.283-1.246l1.336-0.147    l-0.033-1.396c0.018-0.606,0.289-2.516,2.986-2.516c0.131,0,0.269,0.004,0.408,0.014c2.76,0.174,3.717,1.044,3.881,1.406    l0.172,1.392l1.4-0.155l16.819-1.869l1.284-0.144l0.015-1.331c0.026-0.328,0.322-2.644,3.507-3.047    c0.152-0.02,0.308-0.029,0.462-0.029c1.63,0,2.872,1.03,3.01,1.991l0.223,1.558l1.447-0.258l23.634-4.206l1.213-0.216v-1.321    V31.017V30.82L89.681,30.63z M65.967,18.36c4.562,0,18.376,0.884,21.925,11.334l-70.496,13.52l47.102-24.816    C64.497,18.397,65.041,18.36,65.967,18.36z M88.275,71.523l-21.59,3.843l0,0l-2.044,0.363c-1.061-1.566-1.789-2.839-4.422-2.839    c-0.248,0-0.514,0.012-0.798,0.034c-3.77,0.312-4.64,4.051-4.64,4.051l-16.819,1.87c0,0-0.29-2.337-5.219-2.649    c-0.171-0.01-0.335-0.016-0.493-0.016c-4.438,0-4.438,4.066-4.438,4.066L16.53,81.494L14.185,63.89    c1.627-0.25,2.629-1.801,2.338-3.553c-0.4-2.401-2.58-2.695-2.695-2.695c-0.225,0-0.367,0.016-0.367,0.016l-1.596-11.528    L88.059,31.06l0.217-0.043V71.523z"></path><path fill="#000000" d="M26.554,51.227c-0.359-0.12-0.734-0.182-1.112-0.182c-2.087,0-4.067,1.808-4.819,4.396    c-0.436,1.504-0.403,3.068,0.092,4.403c0.499,1.347,1.408,2.301,2.561,2.687c0.359,0.12,0.733,0.182,1.112,0.182    c2.087,0,4.067-1.808,4.818-4.396c0.437-1.503,0.404-3.066-0.091-4.402C28.614,52.567,27.706,51.612,26.554,51.227z     M27.616,57.461c-0.672,3.984-3.015,4.291-3.596,4.286c-0.165-0.022-0.328-0.056-0.487-0.109c-0.663-0.223-1.23-0.702-1.645-1.388    c-0.015-0.024-0.03-0.046-0.044-0.069c-0.128-0.221-0.236-0.451-0.322-0.684c-0.422-1.136-0.446-2.479-0.069-3.778    c0.376-1.293,1.099-2.378,2.036-3.056c0.007-0.004,0.013-0.008,0.019-0.013c0.613-0.438,1.281-0.671,1.934-0.671    c0.075,0,0.149,0.013,0.225,0.019C26.098,52.251,28.248,53.717,27.616,57.461z"></path></g></g><g display="none"><path display="inline" fill="#000000" d="M81.883,34.664c-3.354-2.52-7.241-4.297-11.201-5.633   c-3.967-1.338-8.088-2.25-12.246-2.73c-4.325-0.5-8.71-0.394-13.05-0.158c-3.979,0.215-7.958,0.633-11.863,1.438   c-4.773,0.985-9.56,2.571-13.531,5.473c-1.233,0.901-2.368,1.928-3.423,3.033c-0.485,0.51-0.955,1.036-1.427,1.559   c-0.744,0.823-1.463,1.526-2.415,2.098c-0.888,0.531-1.711,1.181-2.392,1.962c-1.093,1.256-1.767,2.846-1.788,4.52   c-0.019,1.529,0.514,3.495,1.723,4.52c0.19,0.16,0.404,0.294,0.635,0.391c0.15,0.063,0.236,0.021,0.223,0.2   c-0.008,0.104-0.016,0.207-0.021,0.311c-0.026,0.439-0.031,0.881-0.012,1.321c0.037,0.833,0.164,1.661,0.381,2.467   c0.475,1.769,1.376,3.39,2.467,4.851c1.429,1.914,3.164,3.589,4.966,5.147c1.58,1.368,3.336,2.509,5.201,3.447   c3.923,1.973,8.234,3.085,12.546,3.814c4.575,0.774,9.251,1.192,13.888,1.328c4.884,0.143,9.79-0.174,14.593-1.081   c3.452-0.652,6.855-1.606,10.109-2.937c3.726-1.523,7.448-3.565,10.33-6.413c2.982-2.947,4.193-7.178,3.994-11.3   c-0.015-0.3-0.035-0.6-0.059-0.899c-0.014-0.177-0.023-0.169,0.13-0.268c0.182-0.118,0.351-0.255,0.507-0.406   c0.691-0.67,1.1-1.588,1.244-2.532c0.124-0.81,0.057-1.639-0.138-2.432c-0.432-1.764-1.435-3.354-2.554-4.76   C86.765,38.564,84.357,36.521,81.883,34.664C74.016,28.758,90.535,41.157,81.883,34.664z M86.391,60.237   c-0.799,1.472-2.119,2.675-3.409,3.709c-2.097,1.681-4.458,3.023-6.9,4.131c-7.612,3.45-16.137,4.653-24.438,4.526   c-4.5-0.068-9.038-0.461-13.486-1.146c-4.23-0.651-8.47-1.635-12.384-3.404c-3.924-1.773-7.316-4.529-10.045-7.854   c-1.69-2.058-3.048-4.454-3.189-7.164c-0.012-0.224-0.017-0.446-0.015-0.671c0.002-0.204,0.008-0.408,0.02-0.613   c0.008-0.134,0.018-0.268,0.031-0.401c0.018-0.171,0.232-0.159,0.383-0.212c0.255-0.091,0.402-0.197,0.67-0.153   c0.189,0.031,0.38,0.064,0.569,0.101c0.529,0.099,1.056,0.213,1.577,0.35c0.524,0.137,1.045,0.295,1.549,0.494   c0.236,0.094,0.299,0.29,0.381,0.521c0.334,0.934,0.493,1.93,0.694,2.897c0.358,1.72,0.791,3.789,2.293,4.898   c1.929,1.425,4.815,0.629,6.915,0.087c1.24-0.321,2.475-0.707,3.742-0.907c0.742-0.117,1.758-0.278,2.144,0.532   c0.313,0.658,0.45,1.385,0.776,2.04c0.338,0.683,0.832,1.271,1.478,1.682c0.928,0.591,2.07,0.787,3.147,0.891   c1.207,0.115,2.392-0.025,3.574-0.266c2.105-0.427,4.242-0.958,6.398-1.018c2.541-0.07,4.963,0.814,7.414,1.346   c2.464,0.533,4.971,0.66,7.456,0.191c3.521-0.665,6.902-2.153,9.08-5.083c0.312-0.421,0.601-0.859,0.919-1.275   c0.527-0.687,1.131-0.964,1.953-1.188c1.748-0.477,3.569-0.629,5.312-1.136c1.563-0.455,3.057-1.194,3.756-2.745   c0.146-0.325,0.261-0.663,0.359-1.005c0.054-0.185,0.037-0.322,0.232-0.378c0.154-0.045,0.314-0.076,0.473-0.104   c0.748-0.134,1.509-0.184,2.261-0.295C88.309,54.629,87.847,57.555,86.391,60.237C84.199,64.275,88.37,56.591,86.391,60.237z    M89.955,48.026c-0.121,0.719-0.556,1.76-1.332,2.007c-0.886,0.283-1.896,0.271-2.81,0.414c0.012,0.069,0.024,0.139,0.036,0.207   c-0.068-0.176-0.027-0.203-0.236-0.186c-0.292,0.025-0.585,0.039-0.877,0.032c-0.303-0.008-0.646-0.021-0.928-0.146   c-0.337-0.151-0.65-0.497-0.943-0.725c0.183,0.297,0.365,0.595,0.548,0.892c0.14,0.227,0.252,0.462,0.31,0.724   c0.007,0.032,0.086,0.606,0.047,0.606c-0.276,0.996-0.674,1.773-1.605,2.284c-1.02,0.559-2.191,0.81-3.322,1.03   c-1.229,0.241-2.479,0.417-3.685,0.763c-1.087,0.312-1.896,0.78-2.587,1.685c-0.809,1.062-1.504,2.156-2.543,3.019   c-1.508,1.253-3.386,1.979-5.262,2.479c-0.604,0.161-1.219,0.29-1.837,0.386c-0.266,0.041-0.532,0.075-0.8,0.104   c-0.199,0.021-0.399,0.04-0.6,0.053c-0.022,0.033,0.011,0.168,0.014,0.21c-0.094-0.232-0.1-0.203-0.363-0.192   c-0.216,0.009-0.434,0.015-0.649,0.016c-0.444,0-0.89-0.022-1.333-0.059c-0.83-0.069-1.653-0.204-2.469-0.374   c-1.361-0.284-2.696-0.679-4.055-0.979c-1.773-0.392-3.521-0.526-5.328-0.304c-1.407,0.175-2.794,0.43-4.182,0.717   c-0.518,0.107-1.034,0.216-1.555,0.311c-0.327,0.06-0.655,0.107-0.986,0.139c-0.193,0.018-0.387,0.028-0.581,0.033   c-0.153,0.064-0.13-0.01-0.128,0.213c-0.064-0.2-0.038-0.207-0.267-0.215c-0.185-0.006-0.369-0.016-0.554-0.031   c-0.356-0.03-0.712-0.082-1.064-0.148c-0.927-0.176-1.801-0.509-2.316-1.345c-0.419-0.677-0.549-1.479-0.87-2.198   c-0.4-0.896-1.184-1.49-2.185-1.528c-1.404-0.107-2.83,0.338-4.174,0.69c-1.308,0.344-2.617,0.725-3.961,0.893   c-1.204,0.147-2.611,0.164-3.426-0.879c-0.921-1.179-1.143-2.849-1.432-4.271c-0.237-1.171-0.43-3.231-1.746-3.734   c-1.274-0.486-2.737-0.595-4.084-0.733c0.163-0.922-0.105-1.85-0.291-2.745c-0.101,0.768-0.076,1.821-0.666,2.397   c-0.229,0.225-0.479,0.26-0.783,0.326c-0.079,0.019-0.159,0.027-0.24,0.025c-0.109-0.003-0.217-0.021-0.321-0.055   c-0.135-0.046-0.117,0.034-0.173,0.157c0.048-0.247,0.021-0.193-0.17-0.359c-0.208-0.174-0.352-0.431-0.484-0.663   c-0.193-0.339-0.353-0.694-0.469-1.067c-0.218-0.702-0.286-1.447-0.198-2.177c0.216-1.807,1.364-3.314,2.818-4.345   c0.783-0.556,1.595-0.967,2.29-1.642c0.517-0.502,0.992-1.047,1.475-1.58c1.178-1.306,2.414-2.562,3.823-3.621   c4.29-3.225,9.645-4.948,14.896-5.822c2.478-0.413,4.956-0.741,7.461-0.949c2.232-0.185,4.473-0.238,6.712-0.324   c7.503-0.289,15.015,0.872,22.067,3.465c4.03,1.481,7.734,3.481,11.073,6.188c2.577,2.089,5.308,4.546,6.708,7.628   C89.827,45.74,90.146,46.901,89.955,48.026C89.741,49.29,90.264,46.203,89.955,48.026z"></path><path display="inline" fill="#000000" d="M65.541,43.793c-0.63-0.223-1.268-0.425-1.902-0.629c-0.277-0.09-0.803-0.139-0.967-0.406   c-0.229-0.372-0.275-0.854-0.439-1.259c-0.418-1.031-1.405-1.462-2.399-1.812c-1.087-0.383-2.229-0.5-3.376-0.467   c-1.199,0.035-2.392,0.178-3.589,0.234c-0.603,0.029-1.22,0.086-1.812-0.057c-0.636-0.154-1.231-0.444-1.833-0.695   c-1.081-0.451-2.242-0.778-3.402-0.428c-0.994,0.301-1.601,1.092-2.483,1.568c-0.634,0.342-1.52,0.162-2.202,0.096   c-0.896-0.087-1.836-0.289-2.737-0.188c-0.807,0.091-1.057,0.777-1.148,1.5c-0.059,0.457-0.065,0.92-0.08,1.381   c-0.007,0.212,0.022,0.461-0.057,0.641h0.001c0,0-0.012,0.024-0.036,0.06c-0.011,0.017-0.022,0.032-0.035,0.046   c-0.091,0.108-0.276,0.229-0.603,0.261c-1.453,0.141-3.516-0.023-4.146-0.222c1.896,0.771,3.791,1.543,5.688,2.314   c2.806,1.143,5.753,1.928,8.752,2.355c2.167,0.309,4.363,0.444,6.546,0.221c2.058-0.212,4.087-0.67,6.067-1.262   c2.506-0.75,4.914-1.732,7.253-2.896C66.246,44.032,65.894,43.912,65.541,43.793z M49.333,47.446   C49.304,47.445,49.305,47.445,49.333,47.446L49.333,47.446z M49.34,47.447c0.031,0.001,0.083,0.002,0.151,0.005   C49.415,47.449,49.367,47.447,49.34,47.447z M51.458,47.521C51.531,47.523,51.543,47.523,51.458,47.521L51.458,47.521z    M50.435,47.484c-3.243-0.112-6.473-0.705-9.563-1.689c6.47-2.026,13.852-2.578,20.352-0.344   C57.792,46.675,54.104,47.613,50.435,47.484z M63.238,44.679c-0.432,0.001-0.777-0.177-1.184-0.325   c-0.621-0.226-1.249-0.43-1.884-0.613c-1.226-0.354-2.476-0.629-3.736-0.823c-2.557-0.396-5.159-0.464-7.735-0.235   c-3.276,0.289-6.598,1.006-9.642,2.277c-0.23,0.097-0.256,0.104-0.519-0.004c-0.261-0.107-0.52-0.219-0.78-0.324   c-0.058-0.023-0.098-0.229-0.118-0.284c-0.057-0.15-0.035-0.076,0.017-0.171c0.396-0.271,0.409-0.748,0.431-1.188   c0.02-0.428,0.023-0.854,0.055-1.281c0.017-0.238-0.01-0.83,0.207-0.998c0.292-0.13,0.752-0.039,1.058-0.014   c0.659,0.055,1.314,0.146,1.974,0.207c0.56,0.052,1.143,0.104,1.701,0.01c0.57-0.097,1.044-0.443,1.484-0.799   c0.74-0.598,1.471-1.109,2.469-1.058c1.271,0.066,2.378,0.844,3.578,1.185c1.194,0.34,2.517,0.146,3.736,0.052   c2.097-0.161,4.111-0.308,6.056,0.644c0.437,0.213,0.763,0.422,0.954,0.885c0.159,0.383,0.229,0.797,0.393,1.178   c0.396,0.916,1.521,1.023,2.373,1.305C63.832,44.431,63.535,44.557,63.238,44.679z"></path></g><g display="none"><g display="inline"><path fill="#000000" d="M74.361,24.215c0.01,0.02,0.02,0.038,0.028,0.057c-0.011-0.022-0.02-0.04-0.031-0.062    c-0.48-0.96-0.286-0.571-0.003-0.005c-1.237-2.466-3.38-4.455-5.877-5.657c-0.102-0.049-0.815-0.335-0.771-0.42    c0.29-0.565,0.783-1.012,1.258-1.424c1.217-1.055,2.602-1.887,4.102-2.485c-0.191-0.291-0.429-0.897-0.811-0.968    c0.051-0.01,0.102-0.019,0.153-0.027c-1.104-1.678-2.874-2.741-4.831-3.197c-1.035-0.24-1.934-0.28-2.881,0.256    c-0.854,0.482-1.576,1.199-2.104,2.014c-0.587,0.905-0.961,1.932-1.198,2.975c-0.059,0.252-0.107,0.506-0.15,0.761    c-0.021,0.13-0.041,0.26-0.059,0.39c-0.027,0.205-0.115,0.122-0.297,0.111c-0.612-0.037-1.228-0.04-1.841-0.004    c-2.048,0.118-4.023,0.678-5.71,1.848c-1.602,1.112-2.857,2.656-3.755,4.363c-1.124,2.141-1.505,4.436-1.812,6.801    c0.317-0.177,0.642-0.342,0.96-0.518c-1.201,3.405-2.697,6.714-4.229,9.984c-0.522,1.118-1.054,2.23-1.597,3.339    c-0.644,1.315-1.785,2.382-2.892,3.33c-2.783,2.383-6.084,4.099-8.995,6.319c-3.222,2.457-5.968,5.446-8.099,8.873    c-2.188,3.515-2.964,7.664-2.327,11.729c0.346,2.208,1.072,4.348,2.048,6.359c0.977,2.013,2.181,3.948,3.676,5.629    c2.605,2.93,6.083,4.821,10.002,5.366c4.231,0.589,8.528-0.248,12.566-1.475c1.852-0.562,3.609-1.293,5.26-2.302    c1.606-0.981,3.086-2.16,4.445-3.452c2.681-2.548,4.916-5.529,6.842-8.662c4.374-7.112,7.422-15.193,8.931-23.374    c1.022-5.54,1.156-11.249,0.177-16.807c0.266,0.343,0.528,0.688,0.792,1.031C75.678,31.32,76.035,27.561,74.361,24.215z     M73.771,43.516c-0.27,6.757-2.028,13.436-4.516,19.715c-2.472,6.24-5.78,12.391-10.45,17.312    c-2.045,2.153-4.394,4.077-7.085,5.392c-1.63,0.795-3.385,1.306-5.137,1.767c-2.139,0.563-4.33,0.953-6.544,1.047    c-3.283,0.14-6.599-0.487-9.391-2.256c3.267,0.659,6.677,0.647,9.924-0.12c1.305-0.308,2.646-0.713,3.83-1.35    c-1.039,0.427-2.219,0.665-3.32,0.876c-1.025,0.196-2.065,0.323-3.109,0.373c-1.721,0.082-3.453-0.051-5.135-0.42    c-1.396-0.308-2.816-0.739-4.04-1.484c-1.421-0.865-2.528-1.959-3.415-3.342c-2.326-3.622-3.849-7.936-3.583-12.261    c0.272-4.444,2.647-8.268,5.564-11.54c2.321-2.604,5.1-4.677,8.015-6.59c2.504-1.644,5.08-3.242,7.137-5.438    c0.464-0.497,1.052-1.059,1.355-1.669c0.199-0.4,0.396-0.803,0.591-1.205c0.855-1.762,1.687-3.534,2.489-5.32    c0.956-2.123,1.878-4.265,2.697-6.442c0.162-0.429,0.318-0.859,0.468-1.291c0.079-0.225,0.155-0.45,0.229-0.677    c0.036-0.108,0.07-0.219,0.106-0.326c0.069-0.214,0.12-0.235,0.324-0.344c1.085-0.578,2.175-1.148,3.268-1.711    c0.876-0.45,1.754-0.896,2.635-1.335c-0.026,3.823,1.046,7.562,2.485,11.081c2.234-1.057,4.188-2.442,5.562-4.503    c0.571-0.856,1.084-1.751,1.574-2.653c0.176-0.323,0.348-0.647,0.517-0.974c0.062-0.119,0.112-0.286,0.199-0.39    c-0.031,0.037,0.358,0.781,0.383,0.842c0.397,0.992,0.69,2.026,0.936,3.065c0.623,2.651,0.991,5.426,1.075,8.146    c0.235-2.916,0.162-5.871,0.125-8.794c0.737,0.393,1.383,0.959,1.948,1.564c0.371,0.398,0.712,0.825,1.021,1.273    c0.374,0.541,0.774,1.104,0.864,1.759C73.744,38.024,73.883,40.762,73.771,43.516z M74.459,31.879    c-1.199-1.533-2.574-2.991-4.119-4.187c-1.193-0.923-2.516-1.417-3.927-1.92c-0.424,1.312-1.118,2.595-1.819,3.777    c-1.139,1.916-2.662,3.976-4.816,4.847c-1.435-3.587-2.358-7.583-1.799-11.447c-2.939,1.451-5.902,2.863-8.762,4.465    c0.441-3.008,2.038-6.169,4.581-7.969c2.409-1.706,5.565-2.13,8.437-1.609c0.028-2.038,0.565-4.219,2-5.75    c0.625-0.668,1.367-1.217,2.327-1.083c1.114,0.154,2.258,0.547,3.196,1.165c-0.332-0.107-0.609,0.109-0.873,0.277    c-0.304,0.193-0.598,0.4-0.879,0.623c-0.527,0.414-1.012,0.879-1.439,1.393c-0.851,1.022-1.471,2.227-1.797,3.51    c0.728-1.195,1.603-2.315,2.645-3.262c0.506-0.46,1.055-0.877,1.646-1.227c0.308-0.182,0.627-0.344,0.956-0.482    c0.146-0.061,0.294-0.117,0.442-0.168c0.199-0.069,0.332,0.188,0.465,0.326c0.108,0.113,0.387,0.364,0.279,0.541    c-0.116,0.189-0.403,0.283-0.598,0.367c-0.643,0.279-1.223,0.714-1.765,1.151c-1.193,0.964-2.184,2.182-2.816,3.573    c2.835,0.734,5.417,2.706,6.879,5.205C74.291,26.365,74.719,29.178,74.459,31.879z"></path><path fill="#000000" d="M74.39,24.271c0.353,0.703,0.5,0.997,0.522,1.041C74.881,25.252,74.615,24.722,74.39,24.271z"></path><path fill="#000000" d="M74.912,25.312C74.915,25.32,74.916,25.321,74.912,25.312L74.912,25.312z"></path><path fill="#000000" d="M52.883,80.01c0,0,6.723-4.084,10.916-12.379c3.909-7.729,4.541-16.65,4.541-16.65    S65.354,70.082,52.883,80.01z"></path></g></g><g display="none"><path display="inline" fill="#000000" d="M89.926,28.457c0.056-0.227,0.096-0.5,0.084-0.81c-0.018-0.515-0.173-1.129-0.617-1.784   c-0.03-0.045-0.064-0.091-0.104-0.137c-0.27-0.323-0.75-0.65-1.587-0.65c-2.173,0-7.45,2.594-10.218,4.815   c-0.235-0.502-0.734-0.832-1.34-0.832c-0.053,0-0.106,0.003-0.161,0.009c0.052-0.145,0.086-0.303,0.103-0.476   c0.06-0.663-0.113-1.178-0.353-1.569c0.203-0.075,0.411-0.151,0.605-0.223c3.218-1.186,7.101-2.615,8.026-4.85   c0.171-0.414,0.24-0.855,0.187-1.328c-0.16-1.387-1.134-2.247-2.542-2.247c-0.955,0-2.021,0.372-3.054,0.73   c-0.419,0.146-0.903,0.315-1.293,0.418c0.102-0.322,0.251-0.701,0.351-0.953c0.106-0.271,0.212-0.537,0.303-0.799   c0.135-0.393,0.236-0.776,0.26-1.146c0.022-0.37-0.033-0.728-0.214-1.071c-0.242-0.461-0.671-0.783-1.204-0.907   c-0.119-0.026-0.241-0.04-0.363-0.04h-0.001c-0.839-0.001-1.525,0.527-2.519,1.931c-0.196-0.186-0.424-0.325-0.656-0.438   c-0.136-0.065-0.272-0.123-0.406-0.169c0.137-0.107,0.273-0.213,0.398-0.311c2.393-1.854,5.669-4.394,4.458-7.148   c-0.368-0.837-1.026-1.361-1.835-1.479C76.118,6.976,76,6.967,75.879,6.967c-1.348,0-2.902,1.204-4.123,2.41   C71.453,9.134,71.072,9,70.664,9c-0.07,0-0.143,0.004-0.219,0.013c-0.095,0.011-0.188,0.028-0.278,0.054   c-0.004-0.011-0.009-0.021-0.013-0.031c-0.159-0.371-0.435-0.652-0.774-0.811c0.111-0.4,0.149-0.814,0.074-1.235   c-0.083-0.465-0.345-1.124-1.116-1.623c-0.337-0.218-0.721-0.333-1.111-0.333c-0.235,0-0.461,0.04-0.68,0.114   c-1.53,0.52-2.697,2.745-3.924,5.085c-0.145,0.276-0.308,0.588-0.469,0.888c-0.047-0.057-0.096-0.108-0.145-0.156   c-0.348-0.33-0.766-0.425-1.132-0.425c-0.08,0-0.16,0.006-0.24,0.016c-0.391,0.049-0.686,0.208-0.927,0.483   c0.189-0.409,0.331-0.825,0.414-1.24c0.168-0.835,0.084-1.665-0.436-2.421c-0.558-0.81-1.247-0.931-1.609-0.932l0,0   c-0.65,0-1.152,0.326-1.579,0.799c-0.36,0.398-0.669,0.901-0.97,1.404c-0.004-0.115-0.01-0.228-0.014-0.33   c-0.076-1.84-0.192-4.619-2.59-4.703c-0.025,0-0.051-0.001-0.077-0.001l0,0c-0.569,0-1.097,0.228-1.484,0.64   c-0.988,1.052-0.862,3.051-0.728,5.168c0.018,0.287,0.04,0.631,0.055,0.963c-0.184-0.066-0.391-0.11-0.627-0.11   c-0.484,0-0.949,0.184-1.419,0.56c-1.373,1.099-0.401,3.098,0.942,5.866c0.253,0.522,0.598,1.232,0.867,1.854   c-0.22-0.072-0.467-0.122-0.743-0.122c-0.507,0-0.998,0.17-1.458,0.505c-1.435,1.043-0.558,3.021,0.553,5.526   c0.07,0.161,0.151,0.343,0.236,0.537c0.255,0.584,0.551,1.284,0.76,1.883c-0.011-0.003-0.024-0.005-0.036-0.008   c-0.18-0.051-0.375-0.083-0.589-0.083c-0.271,0-0.547,0.05-0.817,0.148c-0.917,0.333-1.168,1.044-1.183,1.825   c-0.003,0.156,0.005,0.314,0.017,0.475c0.026,0.318,0.076,0.639,0.123,0.939c0.027,0.172,0.056,0.355,0.084,0.551   c0.114,0.781,0.225,1.746,0.208,2.936c-0.012,0.893-0.096,1.91-0.303,3.069c-0.002,0.006-0.003,0.012-0.004,0.018   c-0.051,0.272-0.242,0.972-0.527,1.795c-1.196-0.593-2.394-0.935-3.626-1.032c-0.252-0.02-0.509-0.029-0.765-0.029   c-0.7,0-1.423,0.076-2.148,0.227c-1.374,0.287-2.615,1.582-3.751,2.938c-0.099,0.118-0.178,0.214-0.234,0.275   c-0.428,0.467-0.597,0.997-0.614,1.477c-4.199,5.205-4.461,5.674-4.547,5.829c-0.711,1.274-0.707,2.375-0.566,3.096   c-1.538,2.127-5.744,7.957-6.054,8.475c-0.422,0.703-0.682,1.686-0.73,2.74c-0.466,0.834-1.89,3.377-3.352,5.914l-0.229,0.396   c-2.165,3.756-3.429,5.947-3.252,7.318c-1.139,2.482-5.922,12.906-6.37,13.91c-0.618,1.383-0.863,3.521,0.061,4.947   c0.568,0.875,1.489,1.357,2.595,1.357c1.864,0,4.309-1.365,7.464-4.172c0.426-0.045,0.869-0.225,1.322-0.535   c0.535-0.369,7.127-6.645,11.333-10.664c0.395-0.021,0.806-0.143,1.225-0.363c0.214-0.113,0.654-0.344,8.176-8.016   c0.608-0.008,1.182-0.178,1.661-0.498c0.729-0.486,11.596-9.85,13.715-12.264c1.093-1.242,1.638-2.922,1.493-4.604   c-0.042-0.492-0.14-0.945-0.292-1.352c-0.038-0.104-0.086-0.244-0.145-0.416c-0.302-0.885-0.875-2.567-1.938-4.5   c1.551-0.873,3.15-1.812,3.979-2.341c0.025-0.016,0.045-0.029,0.069-0.045c0.058-0.037,0.118-0.076,0.165-0.107   c0.085-0.057,0.17-0.122,0.256-0.184c0.541-0.391,1.088-0.87,1.62-1.341c0.448-0.397,1.116-0.99,1.399-1.138   c0.117-0.014,0.298-0.032,0.528-0.055c5.068-0.509,7.401-1.102,8.321-2.114c0.546-0.6,0.694-1.151,0.688-1.579   c-0.003-0.259-0.062-0.472-0.123-0.626c-0.083-0.209-0.196-0.388-0.333-0.542c1.362-0.726,2.92-1.459,3.986-1.69   c0.879-0.19,2.118-0.288,3.682-0.288c0.955,0,1.877,0.034,2.617,0.062c0.059,0.002,0.11,0.004,0.165,0.006   c0.449,0.018,0.817,0.029,1.101,0.029l0,0c1.818,0,3.168-1.281,3.513-2.486c0.206-0.716,0.073-1.418-0.335-1.93   c-0.137-0.171-0.303-0.32-0.498-0.442c-0.363-0.227-0.803-0.333-1.387-0.333c-0.006,0-0.012,0-0.018,0   C88.131,30.988,89.556,29.951,89.926,28.457z M58.056,54.385c0.104,0.279,0.18,0.621,0.212,1c0.094,1.092-0.177,2.49-1.17,3.621   c-2.006,2.283-12.795,11.596-13.456,12.035c-0.33,0.219-0.688,0.275-0.963,0.275c-0.274,0-0.467-0.057-0.467-0.057   s-3.025-1.154-4.676-3.133c0,0,1.25,2.49,3.939,3.883c-1.953,1.988-7.157,7.266-7.552,7.475c-0.32,0.168-0.562,0.215-0.735,0.215   c-0.223,0-0.326-0.078-0.326-0.078s-2.035-0.221-3.52-2.311c0,0,0.332,1.883,2.648,3.141c-2.619,2.5-10.305,9.826-10.761,10.141   c-0.363,0.25-0.616,0.314-0.778,0.314c-0.167,0-0.239-0.066-0.239-0.066s-1.05-0.137-1.845-1.031c0,0,0.237,1.064,1.017,1.766   c-2.972,2.572-4.943,3.492-6.191,3.492c-2.203,0-2.164-2.848-1.45-4.447c0.408-0.912,4.518-9.871,6.037-13.184   c1.146,1.059,3.257,1.471,3.257,1.471c-0.687-0.33-2.227-1.486-2.557-2.695c-0.183-0.67,0-1.32,0-1.32l-0.013-0.016   c0.523-1.377,1.809-3.578,3.064-5.76c1.188-2.061,2.336-4.102,2.983-5.254c1.193,1.666,3.689,3.074,3.689,3.074   c-2.464-2.023-3.101-4.043-3.148-4.201c0.023-0.922,0.234-1.734,0.546-2.254c0.258-0.43,4.014-5.639,5.636-7.887   c1.696,2.482,5.856,4.699,5.856,4.699c-3.198-2.127-5.119-5.721-5.119-5.721c-0.076-0.152-0.543-1.245,0.269-2.698   c0.249-0.446,2.891-3.743,4.129-5.281c0.709,1.689,2.594,3.111,2.594,3.111c-1.571-1.958-1.92-3.594-1.972-3.883   c0.007-0.008,0.015-0.018,0.015-0.018s-0.209-0.523,0.215-0.986c0.424-0.462,1.962-2.538,3.282-2.812   c0.657-0.137,1.282-0.199,1.879-0.199c0.225,0,0.445,0.008,0.661,0.025c1.184,0.093,2.255,0.442,3.259,0.958   c-0.238,0.574-0.508,1.14-0.794,1.608c-0.368,0.6-0.731,3.305,1.979,6.819c1.375,1.782,3.465,3.41,4.895,3.08   c1.002-0.23,2.583-0.947,3.723-1.549C57.29,51.922,57.817,53.746,58.056,54.385z M82.36,33.313c0.055,0.21,0.328,0.284,0.723,0.284   c0.935,0,2.547-0.416,3.54-0.416c0.295,0,0.535,0.037,0.687,0.132c0.88,0.55-0.219,2.42-1.979,2.42   c-0.732,0-2.246-0.099-3.881-0.099h-0.002c0,0,0,0-0.001,0c-1.363,0-2.812,0.068-3.962,0.318c-2.529,0.55-6.894,3.29-6.894,3.29   c1.32,0.101,3.079,0.34,1.979,1.55s-7.369,1.649-8.139,1.76c-0.195,0.027-0.445,0.168-0.731,0.375   c-1.225,0.819-3.433,2.772-5.136,3.777c-3.319,1.957-6.459,2.891-6.838,2.964C50,50,45.787,44.546,46.667,42.849   c0.354-0.684,0.673-1.483,0.948-2.277c0.017,0.011,0.034,0.021,0.052,0.033c0.05-0.148,0.101-0.303,0.154-0.473   c0.331-1.052,0.566-2.019,0.736-2.917c0.02-0.091,0.035-0.177,0.049-0.248c1.037-5.794-0.831-8.409,0.206-8.786   c0.132-0.049,0.253-0.069,0.366-0.069c0.726,0,1.054,0.883,1.54,0.883c0.121,0,0.253-0.055,0.403-0.192   c1.419-1.299-3.3-7.919-2.09-8.799c0.252-0.184,0.476-0.252,0.682-0.252c0.622,0,1.093,0.624,1.738,0.624   c0.17,0,0.352-0.043,0.551-0.151c1.21-0.66-3.63-7.48-2.53-8.36c0.244-0.195,0.434-0.27,0.594-0.27c0.505,0,0.709,0.738,1.37,0.738   c0.073,0,0.151-0.009,0.236-0.028c0.308-0.072,0.374-0.688,0.356-1.533c-0.022-1.034-0.17-2.414-0.157-3.572   c0.012-1.265,0.215-2.265,0.979-2.265c0.011,0,0.021,0,0.031,0c2.089,0.073,0.697,5.573,1.979,6.16   c0.068,0.03,0.136,0.045,0.203,0.045c1.027,0,2.033-3.374,3.016-3.374c0.131,0,0.262,0.061,0.392,0.196   c0.044,0.046,0.086,0.1,0.13,0.163c1.21,1.76-1.757,4.824-2.859,6.049c-1.104,1.227-0.862,5.333,0.329,6.051   c0.229,0.137,0.444,0.199,0.649,0.199c2.373,0,3.271-8.458,4.081-8.56c0.026-0.003,0.052-0.005,0.075-0.005   c0.67,0,0.301,1.267,0.842,1.584c0.077,0.045,0.173,0.071,0.293,0.071c0.922,0,3.372-7.161,5.215-7.161   c0.135,0,0.267,0.039,0.395,0.121c1.87,1.21-1.65,4.07-1.21,4.4c0.028,0.021,0.062,0.03,0.101,0.03l0,0   c0.27,0,0.767-0.476,1.247-0.892c0.373-0.323,0.735-0.611,0.97-0.611c0.094,0,0.167,0.046,0.213,0.152   c0.33,0.77-5.28,4.619-4.07,5.499c0.09,0.065,0.191,0.096,0.305,0.096c1.412,0,4.498-4.724,5.415-4.825   c0.025-0.003,0.05-0.004,0.073-0.004c0.883,0,0.257,1.984,0.257,1.984s3.14-4.018,4.958-4.018c0.412,0,0.758,0.208,0.981,0.718   c1.21,2.749-5.939,6.38-5.939,7.369c0,0.99,2.749,0.22,2.64,1.76s-5.609,3.19-6.38,3.63c-0.77,0.44-8.249,7.7-5.609,9.569   c0.24,0.171,0.483,0.248,0.729,0.248c2.301,0,4.765-6.792,5.921-7.641c0.077-0.057,0.148-0.087,0.214-0.087   c1.144,0-0.925,2.641,0.615,2.641c0.475,0,1.261-1.033,2.165-2.451c1.987-3.122,4.542-8.116,5.578-8.116   c0.023,0,0.046,0.003,0.066,0.008c1.431,0.329-1.54,3.85-0.33,4.84c0.145,0.118,0.345,0.167,0.587,0.167   c1.064,0,2.931-0.953,4.326-1.191c0.199-0.034,0.391-0.054,0.566-0.054c0.662,0,1.138,0.274,1.23,1.078   c0.33,2.859-9.46,5.169-9.57,5.771c-0.109,0.603,1.211,0.718,1.101,1.928s-4.51,0.55-4.729,1.43c-0.221,0.88,0.99,0.55,0.88,1.54   s-2.53,1.21-3.19,2.75c-0.164,0.385,0.014,0.536,0.387,0.536c1.119,0,3.986-1.361,4.563-1.856c0.575-0.493,2.32-2.032,3.163-2.409   c0.121-0.055,0.223-0.084,0.301-0.084c0.105,0,0.166,0.056,0.166,0.184c0,0.635-0.517,2.359-0.1,2.359   c0.161,0,0.459-0.257,0.979-0.93c1.438-1.862,6.768-4.751,9.513-5.444c0.392-0.1,0.73-0.153,0.999-0.153   c0.294,0,0.501,0.065,0.598,0.208C90.611,30.013,81.958,31.773,82.36,33.313z M59.171,12.021c-0.21,0.55-0.399,1.259-0.634,2.133   c-0.02,0.074-0.041,0.154-0.064,0.241c-0.35,1.304-1.097,3.988-1.743,4.632c-0.041-0.065-0.077-0.148-0.111-0.24   c-0.368-0.973-0.356-3.218,0.104-3.729l0.212-0.233c0.133-0.146,0.28-0.309,0.435-0.481c0.452-0.508,0.974-1.122,1.448-1.796   C58.938,12.375,59.058,12.199,59.171,12.021z M71.19,21.551c-0.394,0.66-0.815,1.356-1.208,1.968   c-0.03-0.071-0.068-0.141-0.111-0.21c-0.027-0.046-0.057-0.093-0.091-0.138c-0.258-0.341-0.63-0.555-1.064-0.617   c0.05-0.02,0.099-0.039,0.146-0.057C69.695,22.177,70.48,21.867,71.19,21.551z M66.208,24.455c-0.244,0.412-0.505,0.886-0.798,1.42   c-0.623,1.138-2.26,4.123-3.078,4.375c-0.007-0.034-0.009-0.082-0.004-0.146c0.037-0.443,0.449-1.615,2.136-3.688   c0.444-0.547,0.899-1.062,1.327-1.521C65.934,24.742,66.072,24.594,66.208,24.455z M72.146,30.661   c0.043-0.003,0.084-0.007,0.125-0.01c0.359-0.029,0.75-0.062,1.14-0.115c-0.346,0.277-0.733,0.601-1.171,0.976   C72.267,31.181,72.227,30.9,72.146,30.661z"></path></g><g><g><path fill="#000000" d="M85.029,23.697c-3.844-4.079-9.556-5.62-15.013-4.962c-6.114,0.737-12.175,2.886-17.921,5.02    C41.282,27.77,30.172,32.339,21.48,40.131c-3.417,3.063-6.373,6.717-8.036,11.032c-1.086,2.818-1.413,5.588-1.052,8.58    c0.349,2.901,0.792,5.79,1.251,8.676c0.445,2.791,1.341,5.025,3.245,7.144c1.724,1.918,3.877,3.435,6.273,4.393    c5.303,2.121,11.312,1.691,16.781,0.5c5.561-1.211,11.128-3.287,15.711-6.724c4.544-3.408,7.369-8.02,10.271-12.803    c1.597-2.63,3.212-5.254,4.943-7.798c1.646-2.417,3.348-4.818,5.754-6.531c2.297-1.634,4.762-3.011,7.218-4.387    c0.819-0.459,2.211-0.769,2.361-1.781c0.375-2.532,0.75-5.064,1.125-7.596c0.133-0.894,0.283-1.785,0.413-2.678    C88.103,27.66,86.678,25.444,85.029,23.697C82.269,20.768,86.371,25.119,85.029,23.697z M86.692,29.37    c-0.485,1.453-1.881,2.588-3.047,3.494c-1.437,1.115-3.012,2.042-4.575,2.963c-3.239,1.91-6.699,3.509-9.874,5.516    c3.411-1.619,6.823-3.237,10.26-4.802c2.534-1.154,5.204-2.219,6.983-4.461c-0.177,1.251-0.363,2.5-0.55,3.75    c-0.11,0.746-0.223,1.492-0.334,2.239c-0.082,0.552-0.028,1.791-0.334,2.244c-0.263,0.388-1.348,0.747-1.768,0.985    c-0.671,0.379-1.34,0.764-2.006,1.154c-1.109,0.649-2.207,1.317-3.301,1.992c-2.538,1.561-4.574,3.315-6.367,5.707    c-1.596,2.128-3.063,4.36-4.496,6.601c-2.982,4.666-5.413,9.947-9.436,13.837c-3.714,3.59-8.416,5.993-13.297,7.57    c-6.421,2.075-13.833,3.482-20.379,1.135c-3.024-1.084-5.568-2.98-7.49-5.551c-1.948-2.606-2.168-6.111-2.646-9.248    c2.761,3.754,7.361,5.529,11.927,5.645c-4.68-1.089-9.826-3.432-11.855-8.109c-1.878-4.331-0.698-9.449,1.557-13.393    c2.71-4.738,6.967-8.499,11.372-11.626c4.426-3.142,9.271-5.632,14.232-7.811c8.165-3.587,16.732-7.042,25.489-8.883    c4.293-0.902,8.872-1.119,12.945,0.763c1.824,0.843,3.538,2.077,4.877,3.581C85.562,25.764,87.227,27.773,86.692,29.37    C86.404,30.231,87.104,28.138,86.692,29.37z"></path></g><g><g><path fill="#000000" d="M69.827,23.387c-6.502,0.553-12.757,2.897-18.782,5.473c-5.159,2.277-10.163,4.847-15.078,7.608     c-3.645,2.047-7.377,4.234-10.634,6.858c-1.348,1.086-2.527,2.336-3.584,3.706c-0.71,0.921-1.345,1.934-1.877,2.97     c-0.395,0.801-0.761,1.623-1.039,2.473c-0.143,0.437-0.267,0.879-0.378,1.323c-0.01,0.039-0.201,1.015-0.146,0.493     c-0.015,2.026-0.453,3.421,0.535,5.415c1.105,2.229,3.2,3.614,5.418,4.564c4.88,2.09,10.658,1.068,15.302-1.115     c5.816-2.733,10.554-7.423,14.403-12.481c1.986-2.61,3.774-5.254,6.153-7.52c2.293-2.184,5.061-3.855,7.829-5.364     c2.375-1.35,4.92-2.436,7.408-3.554c2.278-1.024,4.298-2.019,4.91-4.658C81.663,23.569,73.844,23.093,69.827,23.387z      M69.74,22.29c2.818-0.184,5.944-0.141,8.536,1.125c2.772,1.354,3.791,4.283,2.755,7.149c-1.063,2.943-3.708,3.853-6.34,5.037     c-2.358,1.062-4.69,2.171-6.962,3.41c-2.703,1.474-5.241,3.236-7.45,5.385c-2.967,2.886-5.003,6.594-7.663,9.754     C48,59.633,42.012,64.548,34.886,66.21c-4.612,1.075-9.64,0.692-13.715-1.878c-1.612-1.017-3.009-2.463-3.799-4.208     c-0.504-1.113-0.699-2.277-0.772-3.487c-0.046-0.767,0.202-1.52,0.212-2.283c0.518-3.965,3.248-8.087,6.154-10.738     c2.052-1.872,4.354-3.407,6.728-4.847c5.45-3.306,10.997-6.368,16.756-9.098C53.8,26.187,61.547,22.935,69.74,22.29z"></path></g></g><g><path fill="#000000" d="M64.957,29.974c-1.857,0-3.822,0.48-5.319,1.618c-0.434,0.331-1.413,1.2-0.891,1.818    c0.336,0.397,1.041,0.407,1.515,0.412c1.66,0.02,3.349-0.36,4.704-1.353c0.549-0.401,1.434-1.05,1.467-1.802    C66.462,29.975,65.424,29.974,64.957,29.974z M60.255,32.621c1.208-0.965,2.897-1.375,4.411-1.444    C63.451,32.265,61.871,32.682,60.255,32.621z"></path></g><g><path fill="#000000" d="M58.391,37.219c-1.7,0-3.542-0.551-4.297-2.215c-0.773-1.706-0.093-3.692,1.281-4.864    c3.021-2.576,7.633-3.631,11.49-3.169c1.698,0.203,3.573,0.706,4.633,2.161c1.039,1.426,0.27,2.923-0.945,3.902    c-1.688,1.36-3.902,2.126-5.927,2.828C62.644,36.547,60.509,37.219,58.391,37.219z M64.918,28.112    c-1.666,0-3.281,0.315-4.83,0.921c-1.464,0.572-3.275,1.267-4.325,2.493c-0.871,1.016-1.064,2.713,0.001,3.672    c1.237,1.113,3.36,0.81,4.84,0.498c1.698-0.357,3.36-0.901,4.976-1.528c1.574-0.611,3.39-1.252,4.597-2.489    c0.983-1.007,0.442-2.018-0.692-2.668C68.149,28.246,66.425,28.112,64.918,28.112z"></path></g><path fill="#000000" d="M39.069,69.682l0.002,0.01c0,0,1.397-0.207,2.405-0.396c0.33-0.068,0.608-0.129,0.814-0.175   c3.354-0.879,6.573-2.387,9.21-4.574c3.554-2.947,6.08-7.01,7.581-11.347C55.366,61.139,47.77,67.885,39.069,69.682z"></path></g></svg>