<svg xmlns="http://www.w3.org/2000/svg" xmlns:xlink="http://www.w3.org/1999/xlink" version="1.1" x="0px" y="0px" viewBox="0 0 100 100" style="enable-background:new 0 0 100 100;" xml:space="preserve"><path d="M51,15c-19.299,0-35,15.701-35,35s15.701,35,35,35s35-15.701,35-35S70.299,15,51,15z M51,83c-18.196,0-33-14.804-33-33  s14.804-33,33-33s33,14.804,33,33S69.196,83,51,83z"></path><path d="M10,22c0.552,0,1-0.448,1-1V10c0-0.552-0.448-1-1-1s-1,0.448-1,1v11C9,21.552,9.448,22,10,22z"></path><path d="M14,22c0.552,0,1-0.448,1-1V10c0-0.552-0.448-1-1-1s-1,0.448-1,1v11C13,21.552,13.448,22,14,22z"></path><path d="M19,28V10c0-0.552-0.448-1-1-1s-1,0.448-1,1v18c0,2.757-2.243,5-5,5s-5-2.243-5-5V10c0-0.552-0.448-1-1-1s-1,0.448-1,1v18  c0,3.52,2.613,6.433,6,6.92V90c0,0.553,0.448,1,1,1s1-0.447,1-1V34.92C16.387,34.433,19,31.52,19,28z"></path><path d="M92,9c-4.959,0-6,15.227-6,28c0,5.244,2.932,11.063,7,11.898V90c0,0.553,0.447,1,1,1s1-0.447,1-1V15C95,11.915,95,9,92,9z   M93,46.834c-2.845-0.947-5-5.77-5-9.834c0-16.888,2.061-26,4-26c0.842,0,1,0.636,1,4V46.834z"></path><path d="M74,39c0-6.065-4.935-11-11-11c-2.58,0-5.031,0.888-7,2.519C54.031,28.888,51.58,28,49,28c-6.065,0-11,4.935-11,11  c0,2.944,1.169,5.616,3.06,7.593c-2.054,3.375-7.216,9.95-14.59,14.56c-0.259,0.161-0.429,0.432-0.464,0.734  c-0.034,0.303,0.071,0.605,0.287,0.82l10,10C36.481,72.896,36.736,73,37,73c0.039,0,0.078-0.002,0.116-0.007  c0.304-0.036,0.575-0.208,0.735-0.469c0.075-0.122,7.374-11.862,13.987-13.448C53.812,62.041,57.18,64,61,64c6.065,0,11-4.935,11-11  c0-2.073-0.574-4.063-1.67-5.811C72.674,45.102,74,42.167,74,39z M50.013,52.637c-1.804,0.316-4.082,1.257-6.081,2.322  c0.075-0.123,0.151-0.248,0.228-0.372c1.047-1.709,2.117-3.46,2.796-4.785C47.619,49.927,48.301,50,49,50  c0.331,0,0.649,0.035,0.96,0.066c0.161,0.017,0.32,0.033,0.479,0.046C50.19,50.857,50.044,51.662,50.013,52.637z M36.832,70.418  L34.914,68.5l1.793-1.793c0.391-0.391,0.391-1.023,0-1.414s-1.023-0.391-1.414,0L33.5,67.086L31.914,65.5l1.793-1.793  c0.391-0.391,0.391-1.023,0-1.414s-1.023-0.391-1.414,0L30.5,64.086l-1.917-1.918c6.914-4.611,11.835-10.79,14.005-14.244  c0.011,0.008,0.023,0.014,0.035,0.021c0.731,0.523,1.526,0.957,2.375,1.29h0c-0.659,1.23-1.647,2.844-2.543,4.307  c-0.961,1.568-1.869,3.05-2.349,4.011c-0.21,0.42-0.099,0.93,0.266,1.225c0.366,0.295,0.887,0.297,1.253,0.004  c2.037-1.629,6.008-3.631,8.509-4.142c0.002,0.015,0.007,0.029,0.009,0.044c0.064,0.417,0.15,0.826,0.261,1.227  c0.01,0.035,0.018,0.072,0.027,0.107c0.123,0.429,0.262,0.85,0.434,1.256C44.799,59.124,38.823,67.43,36.832,70.418z M68.186,47.6  C69.373,49.176,70,51.043,70,53c0,4.963-4.037,9-9,9c-0.789,0-1.551-0.112-2.281-0.305l1.988-1.988c0.391-0.391,0.391-1.023,0-1.414  s-1.023-0.391-1.414,0l-2.604,2.604c-0.67-0.366-1.281-0.82-1.834-1.338l2.852-2.852c0.391-0.391,0.391-1.023,0-1.414  s-1.023-0.391-1.414,0l-2.746,2.746c-0.132-0.194-0.251-0.397-0.367-0.603c-0.289-0.507-0.513-1.037-0.695-1.582  c0.078-0.044,0.157-0.082,0.223-0.147l3-3c0.391-0.391,0.391-1.023,0-1.414s-1.023-0.391-1.414,0l-2.259,2.259  c-0.002-0.028-0.008-0.056-0.009-0.083c0-0.002-0.002-0.004-0.002-0.006C52.016,53.309,52,53.156,52,53  c0-1.441,0.279-2.305,0.826-3.412l2.881-2.881c0.391-0.391,0.391-1.023,0-1.414s-1.023-0.391-1.414,0l-2.795,2.795  c-0.379,0.07-0.853,0.038-1.333-0.011C49.788,48.038,49.401,48,49,48c-0.188,0-0.372-0.017-0.558-0.028l2.265-2.265  c0.391-0.391,0.391-1.023,0-1.414s-1.023-0.391-1.414,0l-3,3c-0.064,0.064-0.101,0.142-0.144,0.217  c-0.769-0.258-1.502-0.614-2.176-1.069l2.734-2.734c0.391-0.391,0.391-1.023,0-1.414s-1.023-0.391-1.414,0l-2.851,2.851  c-0.518-0.552-0.972-1.164-1.339-1.833l2.604-2.604c0.391-0.391,0.391-1.023,0-1.414s-1.023-0.391-1.414,0l-1.989,1.989  C40.112,40.551,40,39.79,40,39c0-4.962,4.038-9,9-9c2.368,0,4.605,0.916,6.3,2.578c0.389,0.382,1.012,0.382,1.4,0  C58.395,30.916,60.632,30,63,30c4.963,0,9,4.038,9,9c0,2.852-1.317,5.476-3.615,7.198c-0.213,0.16-0.353,0.396-0.391,0.66  C67.957,47.12,68.026,47.387,68.186,47.6z"></path></svg>