<svg xmlns="http://www.w3.org/2000/svg" viewBox="0 0 89.92 89.92" x="0px" y="0px"><title>scales2_1</title><g data-name="Layer 2"><g data-name="Layer 35"><path d="M82.9,0H7A7,7,0,0,0,0,7V82.9a7,7,0,0,0,7,7H82.9a7,7,0,0,0,7-7V7A7,7,0,0,0,82.9,0Zm5.94,82.9a6,6,0,0,1-5.94,5.94H7A6,6,0,0,1,1.08,82.9V7A6,6,0,0,1,7,1.08H82.9A6,6,0,0,1,88.84,7Z"></path><path d="M28.58,25H61.34a.54.54,0,0,0,.54-.54,16.92,16.92,0,0,0-33.84,0A.54.54,0,0,0,28.58,25ZM45,8.6A15.86,15.86,0,0,1,60.79,23.9H29.13A15.86,15.86,0,0,1,45,8.6Z"></path><path d="M43.27,22.17a2.48,2.48,0,0,0,3.5,0l4.2-7.7-7.7,4.2A2.48,2.48,0,0,0,43.27,22.17Z"></path><path d="M59.8,79.58H30.12a2.58,2.58,0,0,0,0,5.17H59.8a2.58,2.58,0,0,0,0-5.17Zm0,4.17H30.12a1.58,1.58,0,0,1,0-3.17H59.8a1.58,1.58,0,0,1,0,3.17Z"></path></g></g></svg>