<?xml version="1.0" encoding="UTF-8"?>
<svg width="446px" height="338px" viewBox="0 0 446 338" version="1.1" xmlns="http://www.w3.org/2000/svg" xmlns:xlink="http://www.w3.org/1999/xlink">
    <!-- Generator: Sketch 48.2 (47327) - http://www.bohemiancoding.com/sketch -->
    <title>Page 1</title>
    <desc>Created with Sketch.</desc>
    <defs></defs>
    <g id="Symbols" stroke="none" stroke-width="1" fill="none" fill-rule="evenodd">
        <g id="Page-1" transform="translate(2.000000, 2.000000)">
            <path d="M231,100.0018 C236.584,103.3198 241.643,113.7138 242,119.0018 C242.291,123.3108 239.5,129.5018 239.5,129.5018 C239.5,129.5018 219.356,145.1808 188,153.5018 C156.863,161.7648 116.529,162.2488 116.529,162.2488 C116.529,162.2488 111.852,157.4918 111.072,155.4668 C109.229,150.6808 110.547,137.3978 117.448,132.7498 C117.448,132.7498 153.192,132.3208 176.5,127.0018 C213.347,118.5928 234.463,100.6168 231,101.5018" id="Stroke-1" stroke="#00C8D6" stroke-width="4"></path>
            <path d="M116,163.1688 C116,163.1688 116,191.1688 124.667,208.5018 C130.394,219.9558 146,237.1688 150,243.1688 C159.522,257.4518 150,307.8348 150,307.8348 L143.333,321.8348 C143.333,321.8348 144,328.5018 156.667,333.1688 C162.854,335.4478 177.38,330.5388 182,325.8348 C190.849,316.8248 195.151,305.4718 198,293.1688" id="Stroke-3" stroke="#00C8D6" stroke-width="4" stroke-linecap="round"></path>
            <path d="M132.6665,222.5018 C132.6665,222.5018 142.8305,248.1608 139.3335,270.5018 C134.8105,299.3998 124.6665,297.1688 132.6665,310.5018 C134.2775,313.1878 143.9995,315.8348 143.9995,315.8348" id="Stroke-5" stroke="#00C8D6" stroke-width="4" stroke-linecap="round"></path>
            <path d="M154,318.5018 L149.333,325.8348" id="Stroke-7" stroke="#00C8D6" stroke-width="4" stroke-linecap="round" stroke-linejoin="round"></path>
            <path d="M164.6665,320.5018 L159.9995,330.5018" id="Stroke-9" stroke="#00C8D6" stroke-width="4" stroke-linecap="round" stroke-linejoin="round"></path>
            <path d="M138.6665,300.5018 L132.6665,310.5018" id="Stroke-11" stroke="#00C8D6" stroke-width="4" stroke-linecap="round" stroke-linejoin="round"></path>
            <path d="M35.6665,102.8353 C42.6665,101.3353 58.6665,121.3353 55.6665,128.3353 C51.5065,138.0413 32.1335,141.8023 24.6665,134.3353 C19.6665,129.3353 28.8045,104.3053 35.6665,102.8353 Z" id="Stroke-13" stroke="#00C8D6" stroke-width="4" stroke-linecap="round" stroke-linejoin="round"></path>
            <path d="M336,267.8348 C336,267.8348 364,269.8348 375.333,240.5018 C391.812,197.8528 347.244,182.7588 347.244,182.7588 C347.244,182.7588 386.016,163.3908 419.027,199.6598 C448.108,231.6098 425.066,268.9908 425.066,268.9908 L441.706,247.3668 C441.706,247.3668 439.984,286.5058 401.203,303.2768 C366,318.5018 331.333,292.5018 331.333,292.5018" id="Stroke-15" stroke="#00C8D6" stroke-width="4" stroke-linecap="round" stroke-linejoin="round"></path>
            <path d="M67.5903,98.6097 C60.4693,87.8367 59.3513,75.0067 61.3063,69.7707 C62.2673,67.1947 85.1713,67.2227 86.6453,49.6337 C89.1823,19.3787 112.8783,4.8277 144.4293,0.5567 C188.5363,-5.4153 204.1563,37.8947 217.0003,70.5017 C224.7063,90.0667 230.5003,100.5017 230.5003,100.5017" id="Stroke-17" stroke="#00C8D6" stroke-width="4" stroke-linecap="round"></path>
            <path d="M119.3335,129.8353 C119.3335,129.8353 124.9015,117.9563 119.3335,115.8353 C112.3335,113.1683 107.0005,125.5023 95.0005,123.8353" id="Stroke-19" stroke="#00C8D6" stroke-width="4" stroke-linecap="round"></path>
            <path d="M126.8442,40.7098 C126.8442,40.7098 135.3472,50.8978 136.7302,62.8718 C139.2572,84.7668 146.4232,102.6338 156.9502,103.1658 C169.6702,103.8088 170.7142,83.9818 174.9862,78.8158 C179.6642,73.1588 192.5462,67.8338 192.6832,60.4938 C193.1952,33.0918 157.9992,24.3248 157.9992,24.3248" id="Stroke-21" stroke="#00C8D6" stroke-width="4" stroke-linecap="round" stroke-linejoin="round"></path>
            <path d="M69.1841,99.6024 C91.7101,112.7864 99.5641,96.8624 99.5641,96.8624 C99.5641,96.8624 93.1621,140.7524 83.3331,136.5014 C71.0001,131.1684 90.3331,104.8354 90.3331,104.8354" id="Stroke-23" stroke="#00C8D6" stroke-width="4" stroke-linecap="round" stroke-linejoin="round"></path>
            <path d="M64.251,91.078 C64.251,91.078 76.967,80.524 76.189,75.724 C75.72,72.833 66.444,69.222 66.444,69.222 L61.306,69.77 L60.25,81.252 L64.251,91.078" id="Fill-25" fill="#00C8D6"></path>
            <path d="M305.333,245.1688 C305.333,245.1688 297.06,224.1788 280,211.1688 C256.455,193.2138 219.337,185.6298 192.666,225.8348 C148,293.1688 244.667,309.1688 244.667,309.1688 C244.667,309.1688 193.936,307.9248 195.333,320.5018 C196.063,327.0718 198.024,329.7268 207.333,330.5018 C231.333,332.5018 279.835,332.8198 298,327.1688 C306.338,324.5738 287.333,311.8348 287.333,311.8348" id="Stroke-27" stroke="#00C8D6" stroke-width="4" stroke-linecap="round" stroke-linejoin="round"></path>
            <path d="M208.6665,317.8348 L199.9995,325.8348" id="Stroke-29" stroke="#00C8D6" stroke-width="4" stroke-linecap="round" stroke-linejoin="round"></path>
            <path d="M217.3335,319.8348 L207.3335,330.5018" id="Stroke-31" stroke="#00C8D6" stroke-width="4" stroke-linecap="round" stroke-linejoin="round"></path>
            <path d="M190.6665,314.5018 L198.6665,314.5018" id="Stroke-33" stroke="#00C8D6" stroke-width="4" stroke-linecap="round"></path>
            <path d="M239.5,130.5018 C239.5,130.5018 245.333,157.1688 260,166.5018 C291.467,186.5258 328.177,199.6548 334.667,260.5018 C340,310.5018 296,316.5018 296,316.5018" id="Stroke-35" stroke="#00C8D6" stroke-width="4" stroke-linecap="round"></path>
            <path d="M101.3335,66.5018 C101.3335,66.5018 102.6665,43.5018 116.6665,67.5018" id="Stroke-37" stroke="#00C8D6" stroke-width="4" stroke-linecap="round" stroke-linejoin="round"></path>
            <path d="M24,76.5018 L28,87.5018" id="Stroke-39" stroke="#00C8D6" stroke-width="4" stroke-linecap="round" stroke-linejoin="round"></path>
            <path d="M4,92.5018 L14,99.5018" id="Stroke-41" stroke="#00C8D6" stroke-width="4" stroke-linecap="round" stroke-linejoin="round"></path>
            <path d="M0,115.5018 L12,116.5018" id="Stroke-43" stroke="#00C8D6" stroke-width="4" stroke-linecap="round" stroke-linejoin="round"></path>
        </g>
    </g>
</svg>