<?xml version="1.0" encoding="UTF-8"?>
<svg width="344px" height="422px" viewBox="0 0 344 422" version="1.1" xmlns="http://www.w3.org/2000/svg" xmlns:xlink="http://www.w3.org/1999/xlink">
    <!-- Generator: Sketch 48.2 (47327) - http://www.bohemiancoding.com/sketch -->
    <title>Page 1</title>
    <desc>Created with Sketch.</desc>
    <defs></defs>
    <g id="Symbols" stroke="none" stroke-width="1" fill="none" fill-rule="evenodd">
        <g id="Page-1" transform="translate(3.000000, 2.000000)">
            <path d="M134.7661,190.4148 C140.3501,193.7328 141.9991,206.3208 142.3571,211.6078 C142.6481,215.9168 139.2221,222.8098 139.2221,222.8098 C139.2221,222.8098 113.8961,233.2818 82.5401,241.6028 C51.4031,249.8658 12.9361,246.4938 12.9361,246.4938 C12.9361,246.4938 8.2591,241.7368 7.4781,239.7118 C5.6361,234.9258 6.9531,221.6428 13.8541,216.9948 C13.8541,216.9948 55.7131,216.9528 79.0201,211.6338 C115.8681,203.2248 138.2301,189.5298 134.7661,190.4148" id="Stroke-1" stroke="#00C8D6" stroke-width="4"></path>
            <path d="M12.4067,247.4138 C12.4067,247.4138 12.4067,275.4138 21.0737,292.7468 C26.8007,304.2008 42.4067,321.4138 46.4067,327.4138 C55.9287,341.6968 46.4067,392.0798 46.4067,392.0798 L39.7397,406.0798 C39.7397,406.0798 40.4067,412.7468 53.0737,417.4138 C59.2607,419.6928 73.7867,414.7838 78.4067,410.0798 C87.2557,401.0698 91.5577,389.7168 94.4067,377.4138" id="Stroke-3" stroke="#00C8D6" stroke-width="4" stroke-linecap="round"></path>
            <path d="M29.0732,306.7468 C29.0732,306.7468 39.2372,332.4058 35.7402,354.7468 C31.2172,383.6448 21.0732,381.4138 29.0732,394.7468 C30.6842,397.4328 40.4062,400.0798 40.4062,400.0798" id="Stroke-5" stroke="#00C8D6" stroke-width="4" stroke-linecap="round"></path>
            <path d="M50.4067,402.7468 L45.7397,410.0798" id="Stroke-7" stroke="#00C8D6" stroke-width="4" stroke-linecap="round" stroke-linejoin="round"></path>
            <path d="M61.0732,404.7468 L56.4062,414.7468" id="Stroke-9" stroke="#00C8D6" stroke-width="4" stroke-linecap="round" stroke-linejoin="round"></path>
            <path d="M35.0732,384.7468 L29.0732,394.7468" id="Stroke-11" stroke="#00C8D6" stroke-width="4" stroke-linecap="round" stroke-linejoin="round"></path>
            <path d="M49.0732,0.0803 C56.0732,-1.4197 72.0732,18.5803 69.0732,25.5803 C64.9132,35.2863 45.5402,39.0473 38.0732,31.5803 C33.0732,26.5803 42.2112,1.5503 49.0732,0.0803 Z" id="Stroke-13" stroke="#00C8D6" stroke-width="4" stroke-linecap="round" stroke-linejoin="round"></path>
            <path d="M232.4067,352.0798 C232.4067,352.0798 260.4067,354.0798 271.7397,324.7468 C288.2187,282.0978 243.6507,267.0038 243.6507,267.0038 C243.6507,267.0038 282.4227,247.6358 315.4337,283.9048 C344.5147,315.8548 321.4727,353.2358 321.4727,353.2358 L338.1127,331.6118 C338.1127,331.6118 336.3907,370.7508 297.6097,387.5218 C262.4067,402.7468 227.7397,376.7468 227.7397,376.7468" id="Stroke-15" stroke="#00C8D6" stroke-width="4" stroke-linecap="round" stroke-linejoin="round"></path>
            <path d="M13.0732,22.0803 C13.0732,22.0803 8.4062,32.7473 16.0732,47.0803" id="Stroke-17" stroke="#00C8D6" stroke-width="4" stroke-linecap="round" stroke-linejoin="round"></path>
            <path d="M1.4067,31.7468 C1.4067,31.7468 -3.2603,42.4138 4.4067,56.7468" id="Stroke-19" stroke="#00C8D6" stroke-width="4" stroke-linecap="round" stroke-linejoin="round"></path>
            <path d="M18.4067,214.0803 C18.4067,214.0803 29.0737,176.7473 21.0997,157.2343 C17.8217,149.2113 1.9697,136.7103 3.5847,116.0103 C5.0527,97.1873 21.0027,84.0283 28.3167,82.5923 C31.0137,82.0623 42.9857,101.5873 58.7417,93.6313 C85.8437,79.9463 112.7997,90.8993 130.8127,117.1523 C154.9467,152.3243 133.0737,190.0803 133.0737,190.0803" id="Stroke-21" stroke="#00C8D6" stroke-width="4" stroke-linecap="round"></path>
            <path d="M86.1016,126.3543 C86.1016,126.3543 84.5566,139.5343 76.8166,148.7743 C62.6636,165.6703 54.6236,183.1613 61.4796,191.1683 C69.7636,200.8433 84.8716,187.9623 91.5596,187.5093 C98.8846,187.0133 111.6106,192.7003 117.0326,187.7503 C137.2726,169.2723 119.4246,137.6963 119.4246,137.6963" id="Stroke-23" stroke="#00C8D6" stroke-width="4" stroke-linecap="round" stroke-linejoin="round"></path>
            <path d="M63.998,116.5261 L54.986,122.8541" id="Stroke-25" stroke="#00C8D6" stroke-width="8" stroke-linecap="round" stroke-linejoin="round"></path>
            <path d="M7.0288,104.9275 C7.5958,131.0215 25.2748,129.3725 25.2748,129.3725" id="Stroke-27" stroke="#00C8D6" stroke-width="4" stroke-linecap="round" stroke-linejoin="round"></path>
            <path d="M11.7075,96.2605 C11.7075,96.2605 27.3585,101.5655 31.0395,98.3885 C33.2565,96.4745 31.4745,86.6815 31.4745,86.6815 L28.3165,82.5925 L19.1565,87.4965 L11.7075,96.2605" id="Fill-29" fill="#00C8D6"></path>
            <path d="M201.7397,329.4138 C201.7397,329.4138 193.4667,308.4238 176.4067,295.4138 C152.8617,277.4588 115.7437,269.8748 89.0727,310.0798 C44.4067,377.4138 141.0737,393.4138 141.0737,393.4138 C141.0737,393.4138 90.3427,392.1698 91.7397,404.7468 C92.4697,411.3168 94.4307,413.9718 103.7397,414.7468 C127.7397,416.7468 176.2417,417.0648 194.4067,411.4138 C202.7447,408.8188 183.7397,396.0798 183.7397,396.0798" id="Stroke-31" stroke="#00C8D6" stroke-width="4" stroke-linecap="round" stroke-linejoin="round"></path>
            <path d="M105.0732,402.0798 L96.4062,410.0798" id="Stroke-33" stroke="#00C8D6" stroke-width="4" stroke-linecap="round" stroke-linejoin="round"></path>
            <path d="M113.7402,404.0798 L103.7402,414.7468" id="Stroke-35" stroke="#00C8D6" stroke-width="4" stroke-linecap="round" stroke-linejoin="round"></path>
            <path d="M87.0732,398.7468 L95.0732,398.7468" id="Stroke-37" stroke="#00C8D6" stroke-width="4" stroke-linecap="round"></path>
            <path d="M139.2222,222.8098 C139.2222,222.8098 141.7402,241.4138 156.4072,250.7468 C187.8732,270.7708 224.5832,283.8998 231.0742,344.7468 C236.4072,394.7468 192.4072,400.7468 192.4072,400.7468" id="Stroke-39" stroke="#00C8D6" stroke-width="4" stroke-linecap="round"></path>
            <path d="M225.0737,213.4133 C225.0737,213.4133 267.0737,196.7463 291.7397,229.4133" id="Stroke-41" stroke="#00C8D6" stroke-width="4" stroke-linecap="round" stroke-linejoin="round"></path>
            <path d="M232.0737,190.0803 C232.0737,190.0803 274.0737,173.4133 298.7397,206.0803" id="Stroke-43" stroke="#00C8D6" stroke-width="4" stroke-linecap="round" stroke-linejoin="round"></path>
        </g>
    </g>
</svg>