<?xml version="1.0" encoding="UTF-8"?>
<svg width="425px" height="378px" viewBox="0 0 425 378" version="1.1" xmlns="http://www.w3.org/2000/svg" xmlns:xlink="http://www.w3.org/1999/xlink">
    <!-- Generator: Sketch 48.2 (47327) - http://www.bohemiancoding.com/sketch -->
    <title>Page 1</title>
    <desc>Created with Sketch.</desc>
    <defs></defs>
    <g id="Symbols" stroke="none" stroke-width="1" fill="none" fill-rule="evenodd">
        <g id="Page-1" transform="translate(3.000000, 2.000000)">
            <path d="M201.7397,118.4133 C208.0727,119.7463 213.6947,131.1713 215.7397,136.0803 C217.4067,140.0803 216.4067,147.7463 216.4067,147.7463 C216.4067,147.7463 195.9277,165.9533 169.0727,184.0803 C142.4067,202.0803 105.0727,211.4133 105.0727,211.4133 C105.0727,211.4133 99.1297,208.4173 97.7397,206.7463 C94.4567,202.7983 91.4067,189.7463 96.4067,183.0803 C96.4067,183.0803 135.8317,169.3973 156.0727,156.7463 C188.0727,136.7463 204.7177,116.4433 201.7397,118.4133" id="Stroke-1" stroke="#00C8D6" stroke-width="4"></path>
            <path d="M197.7397,265.4128 C197.7397,265.4128 197.4207,305.7308 194.4067,318.7468 C191.5567,331.0498 183.9217,356.4028 175.0727,365.4128 C170.4527,370.1168 155.9267,375.0258 149.7397,372.7468 C137.0727,368.0798 136.4067,361.4128 136.4067,361.4128 L143.0727,347.4128 C143.0727,347.4128 152.5957,297.0298 143.0727,282.7468 C139.0727,276.7468 123.2627,259.6338 117.7397,248.0798 C112.7347,237.6088 105.0727,211.4128 105.0727,211.4128" id="Stroke-3" stroke="#00C8D6" stroke-width="4" stroke-linecap="round"></path>
            <path d="M125.7397,262.0798 C125.7397,262.0798 135.9037,287.7388 132.4067,310.0798 C127.8837,338.9778 117.7397,336.7468 125.7397,350.0798 C127.3507,352.7658 137.0727,355.4128 137.0727,355.4128" id="Stroke-5" stroke="#00C8D6" stroke-width="4" stroke-linecap="round"></path>
            <path d="M147.0732,358.0798 L142.4062,365.4128" id="Stroke-7" stroke="#00C8D6" stroke-width="4" stroke-linecap="round" stroke-linejoin="round"></path>
            <path d="M157.7397,360.0798 L153.0727,370.0798" id="Stroke-9" stroke="#00C8D6" stroke-width="4" stroke-linecap="round" stroke-linejoin="round"></path>
            <path d="M131.7397,340.0798 L125.7397,350.0798" id="Stroke-11" stroke="#00C8D6" stroke-width="4" stroke-linecap="round" stroke-linejoin="round"></path>
            <path d="M199.0732,285.4128 C199.0732,285.4128 225.8472,282.9408 234.4062,280.0798 C242.2992,277.4408 263.0732,264.7468 263.0732,264.7468" id="Stroke-13" stroke="#00C8D6" stroke-width="4" stroke-linecap="round" stroke-linejoin="round"></path>
            <path d="M257.7402,240.0798 C257.7402,240.0798 262.4692,268.3808 277.0732,284.0798 C291.6782,299.7788 316.1572,302.8778 317.7402,314.7468 C320.4062,334.7468 305.0732,363.4128 305.0732,363.4128 C305.0732,363.4128 304.9842,370.3708 310.4062,372.0798 C317.9502,374.4578 332.5782,371.1628 341.0732,364.7468 C355.9312,353.5248 364.0162,318.8268 366.4062,308.7468 C368.5982,299.5018 352.4062,273.4128 352.4062,273.4128 C352.4062,273.4128 398.8232,187.4008 325.7402,156.0798 C297.7402,144.0798 261.7402,158.7468 245.0732,158.0798 C227.6382,157.3828 216.7402,146.4128 216.7402,146.4128" id="Stroke-15" stroke="#00C8D6" stroke-width="4" stroke-linecap="round" stroke-linejoin="round"></path>
            <path d="M315.7402,360.7468 L310.4062,372.0798" id="Stroke-17" stroke="#00C8D6" stroke-width="4" stroke-linecap="round" stroke-linejoin="round"></path>
            <path d="M49.0732,0.0798 C56.0732,-1.4202 72.0732,18.5798 69.0732,25.5798 C64.9132,35.2858 45.5402,39.0468 38.0732,31.5798 C33.0732,26.5798 42.2112,1.5498 49.0732,0.0798 Z" id="Stroke-19" stroke="#00C8D6" stroke-width="4" stroke-linecap="round" stroke-linejoin="round"></path>
            <path d="M325.7402,360.0798 L322.4062,370.0798" id="Stroke-21" stroke="#00C8D6" stroke-width="4" stroke-linecap="round" stroke-linejoin="round"></path>
            <path d="M255.7402,270.0798 C259.0732,286.0798 288.2902,304.1688 291.0732,310.7468 C294.7402,319.4128 290.0732,331.6628 287.0732,335.5798 C284.0732,339.4968 286.0732,345.0798 290.5732,347.5798 C301.7672,353.7998 312.4062,345.4128 312.4062,345.4128" id="Stroke-23" stroke="#00C8D6" stroke-width="4" stroke-linecap="round" stroke-linejoin="round"></path>
            <path d="M294.5732,348.0798 L297.5732,337.0798" id="Stroke-25" stroke="#00C8D6" stroke-width="4" stroke-linecap="round" stroke-linejoin="round"></path>
            <path d="M312.5732,152.5798 C312.5732,152.5798 353.0732,141.0798 352.5732,101.5798 C351.9942,55.8618 303.5732,60.0798 303.5732,60.0798 C303.5732,60.0798 331.2332,26.7138 376.0732,46.5798 C415.5732,64.0798 409.5732,107.5798 409.5732,107.5798 L416.0732,81.0798 C416.0732,81.0798 428.9582,116.4028 401.5732,148.5798 C381.5732,172.0798 347.5732,169.0798 347.5732,169.0798" id="Stroke-27" stroke="#00C8D6" stroke-width="4" stroke-linecap="round" stroke-linejoin="round"></path>
            <path d="M13.0732,22.0798 C13.0732,22.0798 8.4062,32.7468 16.0732,47.0798" id="Stroke-29" stroke="#00C8D6" stroke-width="4" stroke-linecap="round" stroke-linejoin="round"></path>
            <path d="M1.4067,31.7463 C1.4067,31.7463 -3.2603,42.4133 4.4067,56.7463" id="Stroke-31" stroke="#00C8D6" stroke-width="4" stroke-linecap="round" stroke-linejoin="round"></path>
            <path d="M100.0732,180.7463 C100.0732,180.7463 98.4062,152.7463 88.9372,142.6293 C83.0152,136.3023 62.9672,132.0123 55.7582,112.5403 C49.2032,94.8343 58.1702,76.2033 64.2092,71.8333 C66.4362,70.2223 85.4882,82.9333 96.4602,69.1063 C115.3322,45.3243 144.3962,43.9713 171.7542,60.2593 C208.4062,82.0793 201.0732,119.4133 201.0732,119.4133" id="Stroke-33" stroke="#00C8D6" stroke-width="4"></path>
            <path d="M136.6011,75.7585 C136.6011,75.7585 138.7201,88.8585 133.8021,99.8635 C124.8091,119.9865 121.8621,139.0085 130.6451,144.8355 C141.2601,151.8755 152.2681,135.3545 158.5781,133.0885 C165.4871,130.6085 179.2841,132.5965 183.1451,126.3535 C197.5591,103.0435 171.7561,77.5535 171.7561,77.5535" id="Stroke-35" stroke="#00C8D6" stroke-width="4" stroke-linecap="round" stroke-linejoin="round"></path>
            <path d="M110.8267,87.6912 L105.2967,97.2132" id="Stroke-37" stroke="#00C8D6" stroke-width="8" stroke-linecap="round" stroke-linejoin="round"></path>
            <path d="M54.2407,101.0339 C65.6917,124.4889 81.0517,115.5829 81.0517,115.5829" id="Stroke-39" stroke="#00C8D6" stroke-width="4" stroke-linecap="round" stroke-linejoin="round"></path>
            <path d="M54.8569,91.2043 C54.8569,91.2043 71.2899,89.4623 73.3009,85.0353 C74.5119,82.3683 68.7899,74.2233 68.7899,74.2233 L64.2089,71.8333 L57.8229,80.0793 L54.8569,91.2043" id="Fill-41" fill="#00C8D6"></path>
        </g>
    </g>
</svg>