<?xml version="1.0" encoding="UTF-8"?>
<svg width="433px" height="337px" viewBox="0 0 433 337" version="1.1" xmlns="http://www.w3.org/2000/svg" xmlns:xlink="http://www.w3.org/1999/xlink">
    <!-- Generator: Sketch 48.2 (47327) - http://www.bohemiancoding.com/sketch -->
    <title>Page 1</title>
    <desc>Created with Sketch.</desc>
    <defs></defs>
    <g id="Symbols" stroke="none" stroke-width="1" fill="none" fill-rule="evenodd">
        <g id="Page-1" transform="translate(2.000000, 2.000000)">
            <path d="M200.4346,75.8138 C200.4346,75.8138 192.7676,94.3108 159.1016,116.4808 C131.7676,134.4808 108.4346,140.4808 108.4346,140.4808 C108.4346,140.4808 107.9946,119.4638 102.4346,117.1468 C94.4346,113.8138 74.4976,119.7438 59.1016,105.8138 C45.1016,93.1468 44.4346,72.4808 47.7676,65.8138 C48.9976,63.3558 71.7676,65.8138 75.1016,48.4808 C80.8346,18.6658 106.1946,1.7098 137.7676,5.8138 C198.7416,13.7408 200.4346,75.8138 200.4346,75.8138 Z" id="Stroke-1" stroke="#00C8D6" stroke-width="4"></path>
            <path d="M108.4346,140.4803 C108.4346,140.4803 103.0176,144.4403 102.4346,146.4803 C101.0256,151.4173 103.8186,162.5323 107.1016,166.4803 C108.4906,168.1513 114.4346,171.1473 114.4346,171.1473 C114.4346,171.1473 145.1016,161.1473 171.7676,143.1473 C198.6226,125.0203 221.1016,103.1473 221.1016,103.1473 C221.1016,103.1473 223.0176,95.1043 222.4346,92.4803 C221.2806,87.2893 216.0246,76.4893 211.1016,74.4803 C208.6136,73.4653 200.4346,75.8133 200.4346,75.8133" id="Stroke-3" stroke="#00C8D6" stroke-width="4"></path>
            <path d="M207.1011,225.1468 C207.1011,225.1468 206.7821,265.4648 203.7681,278.4808 C200.9181,290.7838 193.2831,316.1368 184.4341,325.1468 C179.8141,329.8508 165.2881,334.7598 159.1011,332.4808 C146.4341,327.8138 145.7681,321.1468 145.7681,321.1468 L152.4341,307.1468 C152.4341,307.1468 161.9571,256.7638 152.4341,242.4808 C148.4341,236.4808 132.6241,219.3678 127.1011,207.8138 C122.0961,197.3428 114.4341,171.1468 114.4341,171.1468" id="Stroke-5" stroke="#00C8D6" stroke-width="4" stroke-linecap="round"></path>
            <path d="M135.1011,221.8138 C135.1011,221.8138 145.2651,247.4728 141.7681,269.8138 C137.2451,298.7118 127.1011,296.4808 135.1011,309.8138 C136.7121,312.4998 146.4341,315.1468 146.4341,315.1468" id="Stroke-7" stroke="#00C8D6" stroke-width="4" stroke-linecap="round"></path>
            <path d="M113.7681,35.8138 C113.7681,35.8138 121.7051,46.4488 122.4351,58.4808 C123.7681,80.4808 129.9521,98.7098 140.4351,99.8138 C153.1011,101.1468 155.2211,81.4078 159.7681,76.4808 C164.7471,71.0858 177.8991,66.4688 178.4351,59.1468 C180.4351,31.8138 145.7681,21.1468 145.7681,21.1468" id="Stroke-9" stroke="#00C8D6" stroke-width="4" stroke-linecap="round" stroke-linejoin="round"></path>
            <path d="M156.4346,317.8138 L151.7676,325.1468" id="Stroke-11" stroke="#00C8D6" stroke-width="4" stroke-linecap="round" stroke-linejoin="round"></path>
            <path d="M167.1011,319.8138 L162.4341,329.8138" id="Stroke-13" stroke="#00C8D6" stroke-width="4" stroke-linecap="round" stroke-linejoin="round"></path>
            <path d="M141.1011,299.8138 L135.1011,309.8138" id="Stroke-15" stroke="#00C8D6" stroke-width="4" stroke-linecap="round" stroke-linejoin="round"></path>
            <path d="M208.4346,245.1468 C208.4346,245.1468 235.2086,242.6748 243.7676,239.8138 C251.6606,237.1748 272.4346,224.4808 272.4346,224.4808" id="Stroke-17" stroke="#00C8D6" stroke-width="4" stroke-linecap="round" stroke-linejoin="round"></path>
            <path d="M267.1016,199.8138 C267.1016,199.8138 271.8306,228.1148 286.4346,243.8138 C301.0396,259.5128 325.5186,262.6118 327.1016,274.4808 C329.7676,294.4808 314.4346,323.1468 314.4346,323.1468 C314.4346,323.1468 314.3456,330.1048 319.7676,331.8138 C327.3116,334.1918 341.9396,330.8968 350.4346,324.4808 C365.2926,313.2588 373.3776,278.5608 375.7676,268.4808 C377.9596,259.2358 361.7676,233.1468 361.7676,233.1468 C361.7676,233.1468 408.1846,147.1348 335.1016,115.8138 C307.1016,103.8138 271.1016,118.4808 254.4346,117.8138 C236.9996,117.1168 221.1016,103.1468 221.1016,103.1468" id="Stroke-19" stroke="#00C8D6" stroke-width="4" stroke-linecap="round" stroke-linejoin="round"></path>
            <path d="M325.1016,320.4808 L319.7676,331.8138" id="Stroke-21" stroke="#00C8D6" stroke-width="4" stroke-linecap="round" stroke-linejoin="round"></path>
            <path d="M12.4346,72.8138 C19.4346,71.3138 35.4346,91.3138 32.4346,98.3138 C28.2746,108.0198 8.9016,111.7808 1.4346,104.3138 C-3.5654,99.3138 5.5726,74.2838 12.4346,72.8138 Z" id="Stroke-23" stroke="#00C8D6" stroke-width="4" stroke-linecap="round" stroke-linejoin="round"></path>
            <path d="M335.1016,319.8138 L331.7676,329.8138" id="Stroke-25" stroke="#00C8D6" stroke-width="4" stroke-linecap="round" stroke-linejoin="round"></path>
            <path d="M265.1016,229.8138 C268.4346,245.8138 297.6516,263.9028 300.4346,270.4808 C304.1016,279.1468 299.4346,291.3968 296.4346,295.3138 C293.4346,299.2308 295.4346,304.8138 299.9346,307.3138 C311.1286,313.5338 321.7676,305.1468 321.7676,305.1468" id="Stroke-27" stroke="#00C8D6" stroke-width="4" stroke-linecap="round" stroke-linejoin="round"></path>
            <path d="M303.9346,307.8138 L306.9346,296.8138" id="Stroke-29" stroke="#00C8D6" stroke-width="4" stroke-linecap="round" stroke-linejoin="round"></path>
            <path d="M321.9346,112.3138 C321.9346,112.3138 362.4346,100.8138 361.9346,61.3138 C361.3556,15.5958 312.9346,19.8138 312.9346,19.8138 C312.9346,19.8138 340.5946,-13.5522 385.4346,6.3138 C424.9346,23.8138 418.9346,67.3138 418.9346,67.3138 L425.4346,40.8138 C425.4346,40.8138 438.3196,76.1368 410.9346,108.3138 C390.9346,131.8138 356.9346,128.8138 356.9346,128.8138" id="Stroke-31" stroke="#00C8D6" stroke-width="4" stroke-linecap="round" stroke-linejoin="round"></path>
            <path d="M96.4346,58.3138 L95.9346,69.3138" id="Stroke-33" stroke="#00C8D6" stroke-width="8" stroke-linecap="round" stroke-linejoin="round"></path>
            <path d="M52.4346,96.3138 C73.4346,111.8138 82.9346,96.8138 82.9346,96.8138" id="Stroke-35" stroke="#00C8D6" stroke-width="4" stroke-linecap="round" stroke-linejoin="round"></path>
            <path d="M48.4346,87.3138 C48.4346,87.3138 62.1996,78.1688 61.9346,73.3138 C61.7756,70.3898 52.9346,65.8138 52.9346,65.8138 L47.7676,65.8138 L46.1846,76.5638 L48.4346,87.3138" id="Fill-37" fill="#00C8D6"></path>
        </g>
    </g>
</svg>